<?xml version="1.0" standalone="no"?>
<!DOCTYPE svg PUBLIC "-//W3C//DTD SVG 20010904//EN"
 "http://www.w3.org/TR/2001/REC-SVG-20010904/DTD/svg10.dtd">
<svg version="1.0" xmlns="http://www.w3.org/2000/svg"
 width="1086.000000pt" height="1086.000000pt" viewBox="0 0 1086.000000 1086.000000"
 preserveAspectRatio="xMidYMid meet">
<metadata>
Created by potrace 1.11, written by Peter Selinger 2001-2013
</metadata>
<g transform="translate(0.000000,1086.000000) scale(0.100000,-0.100000)"
fill="#000000" stroke="none">
<path d="M5389 8576 c-2 -2 -38 -6 -79 -9 -41 -4 -84 -8 -95 -11 -11 -2 -47
-7 -80 -10 -243 -29 -622 -144 -891 -271 l-99 -47 -105 7 c-58 3 -125 8 -150
10 -25 2 -85 6 -135 10 -49 3 -124 7 -165 10 -140 10 -215 15 -300 20 -47 4
-110 8 -140 10 -113 7 -247 16 -293 19 -42 3 -49 1 -57 -18 -22 -58 -18 -66
45 -102 33 -19 71 -39 84 -44 16 -7 21 -15 17 -27 -5 -13 -4 -14 9 -3 11 9 15
9 15 1 0 -7 4 -10 8 -7 5 3 24 -5 43 -17 19 -11 38 -21 43 -22 5 0 11 -7 13
-15 3 -11 2 -12 -4 -3 -6 9 -12 7 -21 -7 -7 -12 -8 -20 -2 -20 5 0 10 5 10 12
0 6 3 8 7 5 3 -4 13 -1 21 6 11 8 14 8 9 0 -4 -6 -3 -14 3 -18 6 -4 8 -11 4
-16 -3 -5 -7 -69 -9 -142 -2 -73 -7 -177 -10 -232 -9 -123 -12 -182 -14 -261
-1 -54 -5 -66 -30 -93 -17 -18 -31 -35 -33 -39 -2 -4 -6 -6 -11 -4 -4 1 -6 -2
-5 -7 3 -10 -14 -38 -49 -81 -12 -15 -19 -31 -15 -35 4 -5 1 -5 -6 -1 -7 4 -9
13 -5 19 11 17 12 67 3 67 -5 0 -10 -5 -12 -11 -2 -6 -12 0 -23 12 -11 12 -14
19 -6 14 11 -6 13 -4 8 8 -4 10 -2 14 6 11 7 -2 13 6 14 23 l1 28 -24 -28
c-13 -16 -24 -25 -24 -21 0 4 7 16 17 26 17 19 5 26 -14 7 -7 -7 -12 -6 -16 5
-4 10 -1 13 9 9 7 -3 14 0 14 6 0 10 -14 15 -34 12 -5 -1 -4 4 1 11 8 9 8 18
-1 30 -7 10 -15 16 -18 13 -2 -3 -5 2 -5 10 0 8 4 15 9 15 4 0 8 -6 8 -12 0
-9 4 -8 10 2 16 24 12 29 -22 25 -18 -3 -28 -1 -21 3 6 4 19 21 28 37 13 23
16 25 12 7 -3 -14 -1 -20 5 -15 7 4 8 1 3 -7 -6 -9 -4 -11 5 -5 9 6 11 4 5 -5
-6 -9 -4 -11 5 -5 9 6 11 4 5 -4 -6 -10 -3 -11 16 -1 34 18 38 24 11 15 -21
-6 -22 -5 -11 13 7 12 17 18 23 15 5 -4 6 -1 1 7 -6 10 -12 7 -26 -11 l-18
-24 -11 30 -11 30 -18 -24 c-14 -18 -20 -21 -26 -11 -5 9 -4 11 3 6 7 -4 12
-2 12 5 0 6 -8 9 -20 6 -16 -4 -18 -2 -10 12 6 12 5 22 -2 29 -8 8 -8 16 2 27
12 15 11 16 -6 13 -10 -1 -22 -7 -26 -13 -4 -5 -10 -6 -15 -2 -8 9 17 28 28
21 4 -2 7 5 6 16 -1 22 -17 28 -17 8 0 -7 -5 -5 -11 6 -9 14 -7 22 6 35 10 9
15 11 12 5 -4 -7 0 -17 8 -24 8 -7 12 -17 8 -23 -4 -6 -1 -7 7 -2 9 6 11 4 5
-5 -6 -9 -4 -11 5 -5 9 5 11 4 6 -3 -4 -7 -1 -12 6 -12 8 0 9 -3 3 -8 -14 -10
-15 -64 -1 -59 6 2 10 15 8 29 -2 18 4 31 20 42 12 9 18 16 12 16 -5 0 -16 -6
-22 -12 -10 -10 -12 -8 -9 7 1 11 6 26 10 33 5 7 2 14 -7 18 -9 3 -13 10 -10
15 3 5 0 9 -5 9 -17 0 -13 -18 5 -28 10 -5 12 -12 7 -15 -9 -6 -36 16 -45 35
-2 4 6 14 17 22 11 9 17 16 14 16 -3 0 -20 -11 -39 -25 -19 -14 -41 -23 -48
-20 -10 4 -12 0 -8 -10 3 -10 2 -13 -5 -10 -6 4 -8 13 -5 21 3 8 1 14 -5 14
-6 0 -6 7 1 19 14 27 13 38 -3 18 -11 -16 -17 -7 -51 70 l-38 88 -42 3 -42 3
-110 -161 c-141 -207 -220 -322 -233 -337 -6 -7 -11 -16 -11 -21 0 -5 -11 -19
-25 -32 -14 -13 -25 -29 -25 -36 0 -7 -9 -19 -20 -27 -11 -8 -17 -17 -13 -21
4 -4 -1 -4 -12 0 -16 6 -18 5 -7 -7 10 -10 6 -19 -18 -44 -16 -16 -29 -33 -30
-37 0 -12 -11 -6 -41 25 -32 32 -24 37 10 6 12 -12 25 -18 29 -14 4 4 -4 16
-17 26 -28 23 -19 40 23 42 27 2 34 11 16 22 -5 3 -19 1 -30 -5 -13 -7 -20 -7
-20 0 0 5 8 10 18 11 10 0 12 3 4 6 -7 3 -20 19 -29 36 -15 30 -15 31 0 18 10
-7 17 -20 17 -27 0 -19 15 -18 31 3 12 15 12 16 -3 10 -13 -4 -15 -2 -11 10 4
11 2 14 -5 9 -7 -4 -12 -2 -12 3 0 16 16 13 30 -4 7 -8 17 -15 23 -15 6 0 -2
13 -18 30 -26 27 -29 28 -41 12 -15 -19 -19 -5 -5 17 8 12 12 13 25 1 20 -16
28 -9 28 24 0 16 8 26 22 30 20 6 18 9 -19 44 -22 20 -36 34 -30 30 16 -14 28
-8 15 7 -9 10 -9 15 -1 15 6 0 11 -5 11 -11 0 -5 5 -7 12 -3 8 5 6 11 -7 20
-16 12 -16 13 1 13 44 1 55 5 50 17 -3 8 -1 16 4 19 16 10 11 21 -10 21 -13 0
-18 -6 -17 -20 1 -13 -5 -21 -16 -22 -12 -1 -13 0 -2 3 19 6 20 23 0 23 -12 0
-11 4 5 20 22 22 25 36 10 45 -6 4 -1 14 12 25 22 18 22 20 6 36 -14 14 -20
15 -30 6 -7 -7 -17 -12 -23 -12 -5 0 -2 5 8 11 9 5 17 15 17 21 0 6 -7 5 -17
-3 -15 -11 -16 -11 -6 1 18 20 16 35 -2 20 -8 -7 -15 -9 -15 -6 0 12 54 55 70
56 10 0 11 3 4 8 -8 5 -7 11 4 22 14 13 15 12 9 -3 -7 -20 -3 -21 24 -7 15 8
19 8 17 -2 -2 -8 5 -12 17 -10 l20 4 -20 -17 c-11 -9 -14 -13 -6 -9 9 5 12 3
7 -5 -4 -6 -12 -9 -17 -5 -5 3 -9 2 -8 -3 3 -19 -2 -25 -15 -14 -10 9 -16 7
-27 -5 -11 -13 -11 -15 2 -14 32 5 42 0 30 -13 -6 -8 -7 -18 -3 -23 4 -5 -5 2
-20 15 -15 13 -25 27 -23 32 3 4 2 9 -2 12 -5 2 -2 2 5 1 6 -2 12 1 12 7 0 6
7 9 15 6 8 -4 17 -2 20 2 10 17 -27 21 -56 6 -24 -13 -28 -19 -19 -35 5 -10
22 -28 37 -40 l27 -21 -22 -15 c-12 -8 -22 -20 -22 -26 0 -6 10 -2 23 10 l23
22 0 -24 c0 -14 -4 -22 -10 -19 -5 3 -6 1 -2 -5 3 -5 1 -12 -4 -14 -6 -2 3
-17 21 -33 18 -17 28 -23 23 -15 -5 8 -9 20 -9 25 -2 17 17 35 28 28 6 -3 7
-1 3 6 -6 9 -11 9 -22 0 -9 -7 -14 -8 -14 -1 0 6 5 14 10 17 8 5 7 12 -1 22
-11 12 -8 13 17 8 28 -5 28 -5 4 5 -19 9 -22 13 -10 20 8 5 18 6 24 3 11 -7
-1 15 -22 40 -8 9 -11 17 -5 17 5 0 15 11 21 25 10 21 9 27 -3 31 -8 4 -12 10
-9 16 3 5 11 4 20 -3 10 -8 14 -8 14 0 0 6 -5 11 -12 11 -6 0 -3 10 8 22 13
16 14 19 2 10 -11 -9 -18 -10 -23 -2 -3 5 -1 10 5 10 6 0 8 11 6 25 -4 22 -2
25 15 20 27 -9 24 7 -6 33 l-25 22 4 -25 c3 -15 0 -25 -7 -25 -7 0 -6 -4 3
-10 13 -9 13 -10 0 -10 -12 0 -12 -2 -1 -9 9 -6 10 -11 2 -15 -6 -4 -9 -11 -6
-15 2 -5 -5 -17 -16 -27 -25 -22 -37 -9 -34 39 2 18 -2 38 -8 45 -7 9 -4 18 8
32 10 11 20 18 23 16 2 -3 -3 -12 -12 -21 -9 -9 -14 -21 -11 -26 9 -13 25 -11
21 4 -1 6 -1 9 1 5 11 -20 22 -5 19 25 -3 20 2 39 11 49 13 14 13 20 3 33 -10
12 -16 13 -26 4 -8 -6 -14 -8 -14 -3 0 4 -6 -1 -14 -12 -10 -13 -11 -23 -4
-32 6 -7 8 -15 5 -19 -4 -3 -9 2 -13 11 -3 9 -11 13 -18 9 -6 -4 -6 0 2 9 11
14 9 19 -10 32 -12 9 -18 16 -14 16 5 0 18 -7 28 -17 28 -25 21 0 -7 27 -14
13 -25 19 -25 13 0 -6 -7 -14 -16 -17 -13 -5 -14 -4 -6 7 7 8 10 17 7 20 -3 4
-2 5 2 2 3 -3 12 4 20 15 16 22 37 27 30 8 -2 -7 -10 -12 -16 -11 -17 4 -13
-8 11 -34 20 -21 22 -21 34 -5 11 16 13 16 32 -1 13 -12 22 -15 27 -7 3 6 12
10 18 8 7 -1 23 2 36 6 19 7 21 10 10 18 -12 8 -12 9 0 6 8 -2 21 -14 29 -27
13 -18 13 -22 1 -19 -8 2 -13 -3 -11 -11 3 -12 1 -12 -15 0 -16 13 -17 12 -5
-3 8 -9 11 -22 7 -28 -3 -5 -2 -10 3 -10 5 0 14 12 21 27 9 20 15 23 23 15 7
-7 17 -12 22 -12 6 0 3 5 -7 11 -9 6 -15 14 -13 18 3 4 -8 21 -24 36 -24 23
-32 26 -45 15 -8 -7 -12 -16 -9 -21 3 -5 0 -9 -5 -9 -17 0 -13 18 10 39 l21
19 -23 23 c-15 15 -17 20 -6 16 10 -4 20 0 26 10 7 14 10 13 16 -6 4 -12 4
-25 1 -28 -3 -4 -6 1 -6 11 0 9 -5 14 -10 11 -20 -12 30 -80 59 -80 9 0 16 -8
16 -20 -1 -11 5 -24 12 -28 8 -5 10 -13 7 -19 -4 -7 -2 -8 5 -4 7 5 9 12 3 19
-14 19 -13 59 1 50 16 -10 68 -12 61 -2 -2 4 -12 5 -22 2 -9 -3 -14 -3 -10 2
4 4 3 17 -3 28 -7 13 -7 17 -1 13 6 -3 13 -2 17 4 3 5 1 10 -4 10 -6 0 -14 0
-18 0 -5 0 -8 -10 -8 -23 0 -23 -21 -30 -42 -14 -7 5 -17 6 -23 2 -18 -11 -11
0 29 43 26 28 45 40 55 36 12 -5 14 -10 6 -19 -8 -9 -4 -12 15 -12 21 0 23 2
14 13 -10 12 -8 13 7 7 17 -6 17 -5 6 10 -8 8 -19 14 -27 11 -7 -3 -16 3 -20
15 -3 12 -11 19 -16 15 -5 -3 -6 -10 -3 -16 4 -7 2 -8 -4 -4 -7 4 -12 2 -12
-4 0 -7 -6 -10 -14 -7 -7 3 -23 -1 -34 -9 -17 -12 -21 -12 -26 2 -4 9 -1 23 5
30 8 9 8 14 1 14 -6 0 -19 -11 -30 -25 -19 -24 -40 -36 -28 -16 4 5 3 11 -1
14 -5 2 -3 2 4 1 6 -2 17 5 25 13 11 15 11 16 -5 10 -11 -4 -16 -3 -12 4 4 5
12 8 18 6 6 -2 22 7 36 19 23 21 58 23 45 2 -4 -6 -9 -6 -14 2 -5 9 -9 9 -14
1 -4 -6 -4 -11 1 -12 4 0 16 -2 26 -4 9 -2 15 0 12 4 -2 4 2 8 10 8 11 0 12
-4 4 -14 -8 -9 -8 -13 -1 -13 18 0 23 17 13 42 -8 18 -10 19 -10 5 -1 -10 -6
-15 -11 -12 -6 4 -7 11 -4 17 5 7 2 8 -6 3 -8 -5 -11 -4 -7 2 3 5 24 18 46 28
48 21 54 34 37 82 -11 33 -17 38 -42 37 -51 -2 -208 -14 -234 -19 -14 -2 -63
-7 -110 -10 -47 -4 -101 -8 -120 -10 -19 -2 -71 -6 -115 -9 -44 -4 -102 -8
-130 -11 -27 -3 -77 -7 -110 -10 -33 -3 -82 -8 -110 -10 -51 -5 -95 -9 -240
-20 -44 -4 -91 -8 -105 -10 -14 -2 -65 -7 -115 -10 -49 -4 -106 -8 -125 -10
-19 -2 -78 -6 -130 -10 -52 -4 -99 -11 -103 -15 -5 -4 -11 -25 -14 -47 l-5
-40 115 -56 c63 -31 118 -61 122 -67 3 -5 11 -8 16 -4 6 3 17 -2 24 -12 17
-23 19 -34 4 -34 -5 0 -8 4 -4 9 3 5 0 13 -7 17 -7 4 -10 4 -6 -1 4 -4 3 -16
-2 -25 -8 -15 -6 -17 10 -13 16 4 20 0 22 -18 1 -23 4 -38 8 -49 4 -10 21
-127 35 -235 2 -22 11 -87 19 -145 9 -58 20 -143 26 -190 6 -47 13 -98 16
-115 9 -68 45 -323 49 -360 7 -51 24 -179 31 -225 16 -117 26 -184 44 -325 7
-49 16 -114 21 -144 18 -112 28 -100 -146 -172 -141 -59 -154 -66 -150 -86 16
-77 13 -73 58 -74 23 0 65 -1 92 -2 54 -2 75 -18 54 -43 -10 -12 -9 -13 3 -9
12 5 15 0 13 -19 -2 -15 6 -36 19 -51 20 -23 24 -24 35 -11 14 16 31 13 31 -5
0 -6 -6 -7 -12 -3 -7 4 -9 3 -5 -1 12 -14 36 -14 31 -1 -3 7 2 13 11 13 8 0
15 -4 15 -9 0 -5 4 -7 10 -3 5 3 19 -4 30 -15 12 -12 20 -16 19 -8 -5 40 22
47 48 12 14 -18 14 -18 11 0 -2 10 3 21 10 23 7 3 12 1 11 -4 -1 -4 -1 -15 0
-23 1 -13 2 -13 11 0 11 18 30 20 49 6 11 -8 13 -8 7 2 -4 6 -3 12 3 12 5 0
12 -8 14 -17 4 -17 5 -17 6 0 0 10 5 16 11 12 5 -3 6 -13 3 -22 -6 -15 -5 -16
9 -3 14 13 14 16 -1 28 -15 12 -14 13 1 8 25 -8 48 3 41 20 -5 14 -24 20 -22
7 3 -20 -3 -23 -22 -12 -12 6 -19 7 -16 2 7 -11 -68 -11 -79 -1 -4 4 1 10 10
14 9 3 16 10 16 16 0 5 -4 6 -10 3 -5 -3 -10 -1 -10 5 0 7 6 10 13 7 6 -2 11
-14 9 -27 -2 -19 0 -21 13 -10 14 12 14 15 -1 37 -8 14 -13 27 -11 30 3 3 13
-9 22 -26 8 -17 20 -31 26 -31 8 0 8 4 0 14 -10 11 -8 17 6 24 10 6 17 14 15
19 -2 4 2 9 10 11 9 2 8 0 -2 -7 -8 -6 -10 -11 -5 -11 6 0 2 -7 -8 -14 -10 -8
-14 -17 -8 -20 5 -3 21 8 35 26 16 20 24 25 19 13 -6 -18 -5 -18 10 -6 11 9
17 10 17 2 0 -6 -4 -11 -9 -11 -5 0 -9 -13 -9 -30 1 -26 3 -28 17 -18 9 7 3
-2 -12 -19 l-29 -31 24 -8 c41 -14 49 -13 57 9 l8 21 12 -23 c7 -12 15 -20 18
-17 3 3 0 12 -7 21 -8 9 -8 15 -2 15 6 0 13 -4 17 -9 3 -6 14 -9 25 -8 10 1
16 5 14 9 -3 4 0 8 7 8 6 0 9 -8 6 -20 -6 -24 13 -22 31 3 7 9 18 17 24 17 6
0 5 -7 -3 -17 -8 -9 -9 -14 -2 -10 6 4 14 1 16 -5 4 -10 8 -9 16 2 10 14 16 7
12 -13 -1 -5 4 -5 10 -2 8 5 8 10 0 18 -18 18 -12 28 8 15 11 -7 17 -17 13
-23 -3 -5 2 -3 13 5 17 14 17 13 11 -10 -5 -17 -4 -21 2 -11 8 11 11 11 16 0
3 -8 3 -3 -1 11 -5 22 -4 23 10 12 9 -8 20 -11 26 -8 5 3 12 0 14 -6 4 -10 6
-10 6 0 1 18 19 15 24 -5 4 -17 5 -17 6 0 1 12 6 16 13 11 7 -4 10 -4 6 1 -4
4 -3 14 3 21 7 8 6 14 -2 20 -7 4 -9 3 -6 -3 3 -5 0 -10 -7 -10 -8 0 -12 6 -9
13 2 7 -5 17 -16 24 -12 6 -21 16 -21 23 0 8 3 8 8 2 4 -6 22 -21 40 -34 23
-16 31 -28 27 -41 -9 -29 10 -32 25 -5 10 19 19 24 34 19 19 -6 20 -5 5 10
-19 20 -50 11 -43 -12 3 -9 -1 -6 -9 8 -9 14 -13 28 -11 32 3 5 -4 8 -15 8
-12 0 -21 4 -21 10 0 6 9 6 22 1 13 -5 22 -14 21 -20 -4 -14 13 -14 39 0 12 6
18 7 14 1 -3 -5 2 -16 11 -23 15 -12 16 -12 10 4 -4 11 1 25 14 38 12 12 19
15 18 7 -1 -7 -1 -19 0 -27 2 -23 15 -3 18 27 1 15 4 43 5 62 3 27 -2 39 -19
53 -13 10 -23 24 -22 30 0 8 2 8 6 -1 2 -7 14 -17 25 -23 17 -9 20 -9 16 3 -4
8 3 20 13 26 10 7 19 8 19 3 0 -5 -4 -11 -9 -13 -15 -5 -17 -41 -2 -46 9 -3
11 0 6 7 -4 7 1 21 11 32 9 10 13 19 8 19 -5 0 -2 5 8 10 10 6 15 20 13 35
l-2 25 21 -22 c28 -30 27 -53 -4 -81 -14 -12 -19 -17 -10 -12 13 9 13 8 2 -7
-8 -9 -19 -16 -25 -14 -7 1 -9 1 -4 -1 4 -3 7 -9 7 -14 0 -6 -6 -7 -12 -3 -10
6 -10 4 -3 -7 6 -8 10 -21 9 -29 -1 -8 -2 -21 -3 -29 -1 -11 -6 -10 -26 3 -14
9 -25 12 -25 7 0 -5 6 -12 13 -14 8 -4 8 -6 -2 -6 -11 -1 -10 -5 5 -17 17 -14
17 -15 1 -10 -12 4 -16 2 -11 -6 4 -6 3 -8 -2 -5 -6 3 -10 -3 -11 -13 -1 -12
7 -20 22 -23 14 -2 22 0 19 4 -3 5 -12 9 -20 9 -8 0 -12 5 -9 10 4 6 10 8 14
6 4 -3 15 11 25 29 11 20 24 32 30 28 6 -4 5 1 -2 10 -12 14 -10 21 10 49 13
18 24 39 23 46 0 6 5 11 10 10 6 -2 9 -6 8 -9 -1 -3 5 -6 13 -6 11 0 11 4 -3
19 -9 10 -11 18 -5 18 11 0 11 18 -1 36 -11 19 5 25 20 6 12 -15 13 -14 2 7
-10 21 -9 27 11 43 12 10 18 18 13 18 -5 0 -14 -5 -21 -12 -8 -8 -12 -9 -12
-1 0 6 12 21 26 32 15 12 23 21 18 22 -5 0 5 7 21 15 l30 15 -29 -6 c-26 -6
-28 -4 -17 9 7 9 17 13 22 11 10 -7 4 27 -10 53 -6 11 -7 22 -4 26 3 3 3 6 -1
6 -4 0 -14 -7 -23 -16 -9 -8 -22 -13 -29 -10 -7 3 -16 1 -19 -4 -4 -6 -12 -10
-18 -10 -7 0 -4 6 5 14 10 7 14 17 10 22 -4 4 1 2 11 -5 23 -18 34 -7 13 14
-19 19 -19 20 -5 47 10 18 9 20 -5 15 -10 -4 -15 -3 -11 3 3 6 0 10 -7 10 -8
0 -6 5 5 11 9 6 15 14 12 20 -4 5 -1 9 4 9 14 0 14 -17 0 -25 -6 -5 -4 -12 8
-20 15 -11 15 -15 3 -29 -11 -15 -11 -19 2 -32 15 -15 52 -9 43 7 -3 4 -12 6
-20 2 -8 -3 -15 0 -15 7 0 6 5 8 10 5 6 -3 10 -1 10 4 0 6 5 11 11 11 5 0 8
-4 4 -9 -3 -5 -1 -12 4 -15 5 -3 11 1 15 9 6 16 -26 39 -39 27 -5 -4 -5 -2 -2
5 4 6 1 13 -5 16 -7 2 -10 8 -6 11 3 4 16 -2 28 -14 12 -12 25 -19 28 -15 4 3
0 10 -8 15 -10 6 -2 8 24 6 21 -2 42 -9 46 -16 5 -8 9 -7 13 5 5 11 3 14 -5 9
-8 -5 -9 -2 -5 10 4 10 3 15 -3 11 -6 -3 -10 -1 -10 4 0 6 10 12 23 12 17 1
18 2 4 6 -9 2 -15 8 -12 13 3 5 0 12 -7 16 -7 4 -10 4 -6 -1 4 -4 0 -22 -9
-39 -9 -17 -18 -25 -20 -18 -3 6 -10 9 -15 6 -7 -4 -8 -2 -4 4 3 6 -2 15 -11
21 -17 10 -17 10 0 11 9 0 17 5 17 10 0 17 -28 11 -39 -7 -6 -10 -11 -13 -11
-7 0 18 28 37 46 30 10 -4 13 -13 10 -24 -4 -12 -1 -19 9 -19 19 0 14 36 -8
52 -22 16 -21 31 3 48 11 8 17 17 12 22 -4 4 3 3 15 -4 15 -7 20 -17 16 -28
-5 -12 -3 -14 7 -8 8 5 11 4 6 -3 -3 -6 3 -26 14 -45 20 -34 20 -36 3 -47 -17
-10 -16 -11 2 -6 18 5 26 -7 63 -107 23 -61 41 -121 38 -132 -8 -43 -20 -110
-21 -120 -2 -19 -17 -120 -21 -140 -25 -131 -25 -723 0 -796 3 -8 7 -34 10
-59 15 -136 59 -327 117 -509 162 -507 442 -955 834 -1331 438 -420 1001 -711
1600 -825 44 -8 89 -17 100 -19 112 -22 253 -31 490 -31 276 0 339 4 505 30
90 14 112 18 170 30 14 3 34 7 45 9 34 7 175 46 265 73 202 61 510 201 680
308 125 79 167 107 264 179 93 70 126 88 120 66 -1 -3 -5 -27 -8 -55 -4 -27
-11 -77 -16 -110 -5 -33 -11 -80 -14 -105 -7 -60 -34 -265 -41 -315 -3 -22
-11 -78 -18 -125 l-12 -84 -95 -69 c-52 -38 -103 -74 -112 -81 -14 -10 -15
-18 -5 -53 12 -45 28 -53 106 -53 20 0 43 -6 50 -13 11 -10 12 -9 6 2 -6 10
-4 12 6 6 7 -5 25 -9 39 -9 14 -1 31 -5 38 -9 7 -5 12 -3 12 5 0 8 3 9 8 2 4
-5 21 -10 37 -9 30 1 65 -19 65 -38 0 -5 -9 1 -20 14 -15 19 -19 21 -20 7 0
-9 6 -19 13 -22 6 -3 3 -4 -7 -3 -10 1 -21 -4 -24 -12 -3 -10 0 -11 9 -5 12 6
12 5 1 -8 -10 -13 -10 -17 0 -20 8 -3 6 -7 -6 -11 -11 -5 -15 -3 -10 5 5 7 3
8 -6 3 -9 -5 -11 -4 -6 3 5 8 1 10 -11 6 -16 -6 -16 -5 1 8 16 13 16 15 2 15
-9 0 -16 -4 -16 -9 0 -4 -5 -8 -11 -8 -5 0 -8 4 -4 9 3 6 -4 8 -16 6 -17 -3
-19 -1 -9 10 7 9 8 15 0 20 -5 3 -10 3 -10 -1 0 -4 -10 1 -22 12 -12 10 -18
13 -14 6 4 -6 2 -12 -3 -12 -6 0 5 -15 25 -34 20 -19 42 -33 48 -32 6 2 8 1 4
-1 -13 -8 -9 -18 15 -32 20 -13 21 -13 8 3 -19 22 -6 33 14 12 9 -9 20 -14 25
-11 5 3 10 -1 13 -7 3 -7 4 1 2 17 -1 17 0 36 2 43 6 15 33 16 33 1 0 -5 -4
-8 -9 -4 -5 3 -12 1 -15 -4 -3 -5 6 -12 21 -15 19 -5 23 -10 14 -19 -6 -6 -11
-16 -11 -21 0 -6 5 -4 10 4 7 11 10 11 10 2 0 -7 4 -10 10 -7 13 8 13 -8 -1
-22 -8 -8 -8 -13 0 -18 7 -4 10 -1 9 7 -2 7 3 12 10 10 10 -2 10 2 2 18 -6 11
-15 20 -21 20 -6 0 -7 5 -3 12 5 7 16 1 33 -18 14 -17 22 -24 18 -18 -5 7 -4
21 2 32 9 17 7 19 -13 17 -19 -3 -24 1 -22 21 1 29 16 32 16 4 0 -11 5 -20 11
-20 6 0 9 6 6 14 -10 26 14 36 36 15 21 -19 47 -26 47 -11 0 4 9 13 21 20 12
8 19 10 16 5 -3 -4 6 -16 19 -26 28 -21 30 -16 8 21 -15 26 -15 26 1 5 16 -21
52 -22 39 -1 -4 6 4 4 17 -3 25 -14 30 -15 52 -18 8 -1 8 -4 -3 -10 -8 -6 -18
-7 -22 -5 -4 3 -8 1 -8 -4 0 -19 14 -21 43 -5 l31 15 -23 13 c-22 11 -22 13
-5 19 10 4 15 4 11 0 -4 -4 1 -13 11 -21 12 -10 14 -16 4 -19 -17 -8 -5 -24
13 -18 9 4 13 -1 12 -15 -1 -12 -5 -21 -10 -21 -5 0 -6 8 -3 17 4 10 4 14 0
10 -4 -4 -13 -2 -21 5 -7 6 -16 8 -20 4 -4 -3 1 -12 11 -19 16 -12 16 -13 -3
-13 -11 0 -17 5 -13 11 3 5 -3 3 -14 -5 -10 -8 -16 -10 -11 -5 4 4 0 16 -8 25
-9 10 -15 23 -13 30 2 7 -3 15 -11 18 -8 3 -11 0 -7 -7 5 -7 1 -9 -11 -5 -16
5 -16 4 -2 -8 8 -7 23 -25 33 -40 16 -25 16 -27 -1 -37 -10 -6 -14 -11 -9 -11
5 0 17 7 27 16 16 14 18 14 29 -5 6 -12 19 -20 28 -19 11 2 16 -3 14 -12 -3
-12 -1 -13 9 -3 10 11 9 16 -7 27 -10 8 -16 17 -12 21 3 4 16 -3 27 -14 12
-12 21 -18 21 -13 0 4 9 -4 20 -18 l21 -25 -12 28 c-7 15 -19 27 -27 27 -18 0
-8 13 13 16 8 1 17 -7 20 -17 4 -11 11 -17 16 -14 8 6 13 -9 10 -28 -1 -5 3
-6 8 -2 6 3 7 13 4 22 -4 10 -2 14 5 9 6 -3 14 -1 18 5 5 8 13 4 26 -12 11
-13 16 -18 12 -10 -5 11 -3 13 9 8 11 -4 14 -2 11 8 -3 8 -13 11 -22 9 -15 -5
-15 -4 -2 8 8 7 14 20 14 28 -1 8 -2 21 -3 28 0 7 -5 11 -10 8 -5 -4 -8 -17
-7 -31 2 -14 -1 -22 -7 -18 -6 4 -7 1 -2 -8 7 -11 6 -12 -6 -3 -8 6 -22 10
-32 9 -10 -2 -14 1 -11 7 4 6 2 8 -4 5 -6 -5 -8 0 -5 13 3 12 0 20 -7 20 -7 0
-10 -7 -7 -15 4 -8 1 -17 -6 -21 -7 -4 -9 -4 -5 1 4 4 3 14 -2 20 -12 14 15
30 32 19 5 -3 18 2 29 12 18 16 19 16 13 1 -3 -9 -9 -17 -13 -17 -4 0 -7 -9
-8 -20 -1 -16 1 -18 17 -8 10 7 18 14 18 17 -3 37 18 41 33 8 10 -23 50 -35
45 -14 -1 7 -1 8 2 4 2 -4 10 -3 18 4 8 6 14 8 14 4 0 -4 -8 -14 -17 -21 -15
-11 -16 -13 -3 -14 9 0 22 6 28 12 10 10 15 10 22 -2 9 -15 11 -13 14 13 2 17
-17 28 -26 14 -4 -7 -6 -3 -6 10 2 20 3 20 27 4 24 -15 25 -15 17 4 -6 16 -5
17 5 8 10 -10 9 -15 -1 -28 -7 -8 -8 -15 -2 -15 12 0 34 25 27 32 -3 2 2 5 10
5 13 0 13 -3 1 -16 -14 -17 -11 -41 6 -41 6 0 8 6 5 13 -3 7 1 21 9 32 8 10
14 14 14 9 0 -6 -5 -15 -10 -20 -18 -18 16 -40 35 -24 10 9 15 9 15 1 0 -6 5
-11 11 -11 6 0 9 7 6 14 -4 11 -1 13 10 9 10 -4 14 -2 9 5 -3 6 -2 13 3 16 13
9 7 -19 -8 -38 -17 -20 2 -22 22 -2 11 11 17 12 27 3 10 -10 12 -8 6 8 -4 13
4 7 21 -14 27 -31 30 -32 45 -17 9 9 20 16 24 16 5 0 3 -5 -4 -12 -7 -7 -12
-17 -12 -22 1 -6 9 -1 19 11 12 14 27 21 45 19 14 -2 29 0 31 4 7 11 -22 20
-42 14 -17 -5 -17 -5 -1 6 13 8 23 8 38 0 15 -8 20 -8 20 1 0 7 3 9 7 6 10
-10 -27 -46 -41 -41 -22 8 -11 -32 17 -66 32 -38 36 -30 6 12 -12 16 -20 30
-18 31 2 1 14 11 27 22 22 18 23 18 16 0 -5 -12 -4 -16 3 -12 6 4 22 -2 36
-13 l26 -21 16 28 c8 15 15 21 14 13 -2 -28 1 -43 8 -36 11 11 11 50 0 58 -12
7 -39 -1 -33 -11 3 -4 2 -12 -2 -18 -5 -8 -15 -6 -32 8 -21 16 -23 20 -10 29
8 5 20 10 25 10 6 -1 2 -5 -9 -11 -15 -9 -16 -13 -5 -20 19 -12 32 -11 24 0
-9 15 28 31 46 21 7 -5 23 -7 34 -3 17 5 16 2 -5 -15 -14 -11 -21 -24 -17 -28
4 -5 13 -2 18 6 8 12 9 11 7 -5 -2 -12 4 -21 15 -23 9 -2 17 2 17 8 0 6 -4 9
-8 6 -4 -2 -8 5 -9 17 -1 21 -1 21 10 3 22 -35 46 -61 47 -50 0 6 -11 27 -24
47 -15 22 -19 34 -10 30 8 -3 14 -10 14 -15 0 -6 8 -5 18 3 14 11 15 11 5 -1
-19 -21 -15 -35 5 -18 27 23 42 30 42 19 0 -6 -6 -11 -14 -11 -9 0 -13 -10
-12 -25 1 -24 16 -37 16 -14 0 5 5 7 10 4 6 -3 10 -2 10 4 0 5 -6 12 -12 14
-10 4 -10 6 -1 6 19 1 25 -17 13 -39 -8 -15 -8 -20 2 -20 9 0 9 -3 1 -11 -8
-8 -16 -8 -30 1 -12 8 -13 10 -2 7 9 -3 16 0 16 7 0 6 -8 12 -18 12 -10 0 -16
-3 -13 -7 2 -4 -10 -5 -26 -4 -17 1 -30 -2 -30 -7 0 -5 -5 -6 -11 -2 -8 4 -7
9 2 15 8 5 10 9 4 9 -5 0 -17 -4 -25 -9 -20 -13 -34 -2 -19 15 14 17 -2 19
-19 2 -15 -15 -44 -20 -36 -6 4 7 2 8 -5 4 -6 -4 -9 -11 -7 -15 3 -4 -1 -8 -9
-8 -8 0 -11 5 -8 10 3 6 1 7 -5 3 -16 -10 -15 -29 1 -23 6 2 20 0 29 -5 13 -6
16 -5 13 5 -4 8 3 13 16 14 17 2 18 -1 8 -13 -6 -8 -9 -17 -6 -21 4 -3 9 2 13
11 6 16 8 16 27 -1 11 -10 17 -13 14 -7 -4 7 3 12 18 12 22 0 24 -3 13 -17
-12 -14 -11 -15 6 -1 27 21 44 21 52 -2 3 -11 9 -17 13 -12 3 5 15 16 25 24
18 14 18 13 12 -8 -8 -23 -7 -23 13 -6 11 10 18 21 16 25 -3 4 2 9 10 13 17 6
19 1 6 -23 -6 -11 -6 -22 1 -32 8 -11 9 -11 4 4 -3 9 -1 17 4 17 6 0 10 -6 10
-12 0 -7 7 -2 16 10 8 12 20 22 26 22 6 0 3 -9 -7 -20 -10 -11 -13 -20 -8 -20
6 0 13 7 17 15 3 8 10 15 16 15 6 0 8 -6 4 -13 -4 -6 -3 -9 1 -4 13 12 16 47
4 47 -5 0 -7 4 -4 10 4 6 -1 7 -12 3 -16 -6 -16 -4 2 16 l20 23 6 -24 c7 -23
7 -23 8 -1 1 17 5 21 19 16 9 -3 14 -3 10 1 -12 14 -43 14 -59 0 -14 -13 -18
-12 -30 3 -12 15 -12 16 3 10 10 -3 22 1 29 11 11 14 11 15 -1 5 -11 -10 -17
-10 -32 3 -16 15 -18 15 -24 0 -4 -12 -13 -15 -28 -10 -18 6 -19 5 -7 -10 11
-13 16 -14 29 -4 13 11 14 11 7 -1 -5 -9 -4 -12 3 -7 14 8 9 -21 -6 -36 -9 -9
-12 -9 -12 2 0 10 -3 11 -11 3 -6 -6 -19 -9 -28 -6 -12 4 -13 3 -2 -5 8 -6 9
-12 3 -16 -5 -3 -12 1 -16 9 -5 15 26 39 38 28 3 -3 6 -1 6 5 0 16 -18 24 -25
12 -8 -13 -34 17 -35 38 0 13 38 10 61 -4 7 -4 9 -3 5 4 -3 6 3 13 14 17 20 7
28 25 10 25 -5 0 -10 -4 -10 -10 0 -16 -18 -12 -39 9 -11 11 -22 16 -26 13 -4
-4 -4 4 0 18 5 23 -1 29 -62 65 -37 21 -74 46 -81 55 -10 11 -12 11 -6 1 8
-15 -55 25 -67 42 -3 5 -10 9 -15 9 -5 0 -8 4 -6 9 1 5 -1 8 -5 8 -22 -4 -41
3 -61 21 -12 11 -24 20 -27 20 -10 0 -100 63 -103 72 -2 4 -10 8 -17 8 -8 0
-16 4 -19 8 -3 5 8 9 25 9 21 0 28 -4 25 -14 -4 -9 -1 -11 6 -7 6 4 8 3 5 -3
-11 -17 17 -22 38 -7 10 8 14 14 9 14 -6 0 -16 -6 -23 -12 -11 -11 -13 -10 -8
5 4 10 3 16 -2 13 -5 -3 -12 1 -15 10 -5 12 -1 14 15 9 15 -5 19 -4 15 4 -4 6
-14 11 -22 11 -8 0 -14 5 -14 11 0 5 4 8 8 5 5 -3 9 0 9 7 0 7 4 21 7 32 6 16
4 15 -6 -3 -8 -12 -17 -19 -21 -16 -4 4 0 18 9 31 8 13 13 30 10 36 -2 7 -5 4
-5 -6 -1 -10 -5 -16 -11 -12 -5 3 -6 13 -3 22 5 13 2 15 -11 10 -10 -4 -20 -7
-23 -7 -3 0 5 -9 18 -21 18 -16 20 -19 6 -15 -11 3 -16 2 -12 -4 3 -6 1 -10
-5 -10 -7 0 -10 7 -7 15 4 8 2 17 -3 20 -10 6 -11 5 -15 -31 -3 -28 -13 -44
-28 -43 -9 0 -9 2 1 6 6 2 12 9 12 14 0 6 -5 7 -12 3 -7 -4 -8 -3 -4 4 4 7 2
12 -3 12 -6 0 -11 5 -11 11 0 8 5 7 16 -2 13 -11 15 -10 12 3 -1 10 6 24 17
32 l20 15 -20 7 c-11 4 -30 16 -41 26 -14 13 -24 16 -29 9 -3 -6 -11 -11 -18
-11 -6 0 -2 6 9 14 13 10 23 11 32 4 7 -6 16 -7 20 -3 4 4 1 10 -6 12 -6 3 -9
10 -5 16 5 7 8 19 9 27 3 43 5 50 14 50 7 0 7 -6 0 -19 -16 -31 -11 -38 10
-12 21 24 19 41 -6 41 -8 0 -14 6 -13 13 3 23 -1 38 -9 33 -4 -2 -14 -1 -21 3
-9 6 -10 11 -2 15 6 4 11 2 11 -5 0 -8 4 -8 15 1 9 7 18 10 22 6 3 -3 1 -6 -7
-6 -10 0 -10 -3 0 -15 6 -8 8 -19 4 -26 -4 -7 -2 -10 7 -7 8 3 14 16 14 31 1
29 11 44 22 33 4 -4 1 -11 -7 -17 -13 -8 -13 -10 0 -19 21 -14 30 -12 24 4 -3
8 -1 17 5 21 7 4 8 -1 4 -12 -6 -16 -5 -16 10 -4 10 8 20 11 24 7 3 -3 1 -6
-5 -6 -21 0 -13 -16 8 -17 13 -1 18 2 14 10 -5 9 -4 9 6 0 7 -6 18 -10 24 -9
6 2 8 1 3 -1 -4 -3 -5 -9 -1 -14 3 -5 14 -5 25 2 12 6 23 8 27 5 3 -3 0 -6 -6
-6 -7 0 -12 -5 -12 -11 0 -5 5 -7 10 -4 6 3 10 1 10 -6 0 -7 3 -9 7 -6 3 4 13
1 21 -6 13 -10 14 -8 8 13 -6 19 -5 21 3 10 6 -8 11 -11 11 -6 0 5 7 3 15 -4
8 -7 15 -9 15 -4 0 5 5 1 11 -9 11 -19 -3 -47 -25 -47 -6 0 -4 5 4 11 13 9 12
10 -3 5 -10 -3 -16 -2 -12 3 6 11 -14 9 -35 -4 -13 -8 -13 -7 0 10 12 15 12
17 1 10 -9 -5 -12 -4 -7 3 4 7 -1 10 -14 7 -11 -2 -20 1 -20 6 0 6 -5 7 -12 3
-7 -5 -8 -3 -3 7 8 12 6 12 -8 0 -9 -7 -18 -11 -18 -7 -1 3 -2 10 -3 15 -2 17
-16 25 -16 9 0 -9 6 -21 14 -27 8 -7 13 -21 11 -32 -2 -10 1 -19 6 -19 5 0 9
7 7 16 -2 10 2 19 9 21 7 3 11 -3 8 -15 -3 -15 2 -18 26 -17 22 1 28 -2 25
-12 -3 -8 -2 -12 3 -8 5 3 12 -1 15 -7 3 -7 3 -2 -1 12 -5 21 -4 23 9 12 9 -7
24 -9 34 -6 16 6 17 5 7 -7 -7 -7 -13 -18 -13 -24 0 -5 5 -3 10 5 7 10 10 11
11 3 3 -28 4 -32 13 -40 5 -4 6 -3 2 4 -3 6 2 16 11 22 13 7 26 4 50 -11 30
-18 32 -18 26 -2 -5 13 -3 15 8 8 8 -5 17 -9 22 -10 20 -4 20 -6 2 -14 -16 -6
-14 -8 12 -7 23 0 34 6 38 19 5 14 10 16 25 8 13 -7 19 -6 24 6 5 12 1 14 -16
8 -17 -5 -20 -3 -15 10 10 26 -1 18 -17 -11 -9 -16 -15 -21 -16 -13 0 12 -2
13 -9 1 -6 -9 -11 -10 -15 -2 -6 9 4 15 25 13 3 0 10 8 17 19 13 21 3 26 -16
7 -7 -7 -12 -9 -12 -4 0 4 6 14 14 21 10 10 16 11 24 3 8 -8 15 -8 27 2 9 7
15 8 15 2 0 -6 -6 -12 -12 -15 -7 -2 -10 -8 -6 -12 4 -4 15 -2 25 6 14 12 16
12 8 0 -6 -11 -4 -13 8 -8 12 4 15 2 11 -11 -3 -9 8 -2 26 16 17 19 34 31 38
27 3 -3 2 -9 -3 -13 -6 -4 -11 -16 -13 -27 -2 -17 2 -15 22 9 23 27 23 31 8
43 -10 7 -12 13 -5 13 6 0 15 -5 19 -11 4 -8 9 -7 16 2 7 11 8 9 4 -4 -3 -10
-1 -28 5 -39 11 -21 12 -21 26 6 8 15 17 25 20 22 3 -3 2 -11 -4 -18 -5 -7
-10 -23 -11 -36 -1 -19 2 -21 13 -12 8 7 12 16 9 21 -11 18 7 29 27 16 17 -10
23 -9 40 12 11 13 22 21 26 18 3 -4 -5 -15 -18 -26 -30 -25 -17 -27 22 -4 27
16 28 18 11 37 -9 11 -12 16 -5 13 6 -4 13 -4 16 0 2 5 2 2 1 -4 -2 -7 6 -18
17 -23 13 -7 18 -17 14 -29 -4 -14 0 -17 17 -16 13 1 24 9 26 18 2 8 11 16 20
16 85 3 116 8 120 20 2 7 -2 18 -9 23 -10 7 -8 8 6 3 11 -4 29 -7 40 -7 15 1
17 -1 5 -8 -8 -5 -18 -6 -22 -4 -4 3 -5 -3 -1 -12 4 -11 3 -15 -5 -10 -6 3
-14 1 -18 -5 -5 -8 -3 -9 7 -4 12 7 12 5 1 -6 -11 -12 -14 -12 -22 1 -8 12
-10 13 -10 1 0 -8 -3 -11 -7 -8 -3 4 -13 1 -21 -6 -10 -7 -13 -7 -9 -1 4 8 -5
11 -27 10 -19 0 -32 -4 -30 -8 2 -3 -2 -9 -8 -12 -7 -3 3 -3 22 0 22 3 30 1
22 -4 -8 -5 -36 -8 -63 -7 -31 1 -46 -2 -42 -8 3 -6 1 -7 -4 -4 -6 4 -10 -1
-9 -10 0 -9 -6 -18 -14 -21 -13 -5 -13 -3 -1 11 7 10 10 17 6 17 -4 0 -1 7 6
17 12 14 12 16 -1 11 -8 -3 -15 -12 -14 -20 1 -19 -36 -21 -43 -2 -5 13 -8 13
-15 2 -7 -9 -8 -8 -4 5 4 12 2 17 -6 15 -7 -3 -13 -10 -13 -16 0 -6 -6 -17
-14 -24 -8 -7 -11 -8 -8 -2 3 6 0 11 -8 11 -8 0 -12 -4 -10 -8 3 -4 -3 -6 -12
-4 -10 1 -17 9 -15 19 2 9 -2 16 -8 16 -6 0 -9 -4 -5 -9 3 -5 0 -13 -6 -17 -7
-4 -9 -3 -6 2 3 5 -3 10 -13 10 -10 0 -17 -3 -15 -7 2 -3 -14 -5 -36 -5 -22 1
-44 7 -48 15 -5 7 -11 9 -13 5 -3 -5 -3 -2 -1 6 2 10 -3 8 -13 -5 -8 -11 -21
-19 -29 -17 -17 3 -28 -14 -18 -30 4 -7 8 -19 9 -26 2 -8 5 -17 8 -20 9 -8 2
30 -8 46 -4 7 -5 16 -1 20 4 4 10 1 12 -6 3 -7 19 -19 36 -28 29 -14 30 -13
13 1 -11 8 -23 15 -28 15 -4 0 -5 6 -2 13 3 8 12 14 20 14 8 0 13 -6 10 -14
-4 -10 -1 -11 14 -3 11 6 21 6 25 1 3 -5 -3 -12 -12 -14 -16 -4 -16 -5 -1 -6
9 0 20 4 23 9 10 15 23 12 28 -7 4 -17 5 -17 6 0 0 10 5 16 11 12 5 -3 6 -13
3 -23 -6 -16 -6 -16 11 1 17 17 42 14 31 -4 -4 -5 -1 -9 5 -9 7 0 10 7 7 15
-4 8 -2 17 3 20 6 4 10 2 10 -3 0 -5 12 -14 28 -21 24 -10 25 -10 9 3 -11 8
-14 17 -8 20 5 4 17 -4 25 -16 9 -12 16 -18 16 -14 0 5 -7 18 -17 28 -9 10
-12 18 -6 18 13 0 54 -45 48 -53 -3 -4 -2 -4 3 -1 4 3 7 11 7 17 0 7 10 11 22
9 14 -2 23 4 27 16 8 25 47 21 57 -6 5 -12 11 -22 13 -22 3 0 1 11 -4 25 -11
29 -3 33 16 8 13 -17 14 -17 8 2 -6 16 -4 18 6 8 18 -16 64 5 49 23 -6 7 -6
14 -1 18 6 3 13 -1 16 -10 5 -14 9 -14 23 -3 14 12 16 12 11 -2 -4 -9 -1 -16
7 -16 8 0 11 7 7 16 -5 14 -4 14 12 2 15 -12 17 -12 14 0 -2 8 5 14 17 15 11
1 25 2 30 4 6 1 15 2 20 1 6 -1 2 5 -8 13 -11 8 -14 17 -8 20 5 4 12 2 16 -4
10 -16 48 9 41 27 -4 9 -1 13 6 10 7 -2 12 -13 10 -23 -2 -16 -1 -17 7 -4 10
14 15 7 12 -13 -1 -5 3 -6 9 -2 11 7 -2 30 -24 46 -4 4 -3 10 3 13 6 4 14 0
17 -9 6 -14 8 -13 21 4 8 12 20 18 31 15 13 -5 14 -4 3 4 -9 7 -10 12 -2 16 6
4 9 11 6 16 -3 4 2 11 11 14 16 6 11 26 -7 26 -6 0 -8 -4 -5 -9 3 -5 -1 -14
-9 -21 -8 -7 -12 -16 -10 -21 3 -4 -4 -6 -15 -4 -13 3 -18 0 -14 -7 4 -6 3 -8
-4 -4 -6 3 -13 2 -17 -4 -4 -6 -11 -7 -17 -4 -7 4 -8 2 -4 -4 4 -7 2 -12 -3
-12 -6 0 -11 5 -11 12 0 11 -14 2 -16 -10 0 -4 -4 -15 -9 -25 -6 -15 -10 -16
-16 -5 -7 10 -9 10 -10 -2 0 -10 -3 -8 -8 5 -5 12 -18 20 -37 21 -43 2 -46 3
-39 14 6 10 -7 14 -35 10 -11 -1 -12 1 -4 10 9 9 17 9 33 1 12 -7 21 -15 21
-19 0 -21 39 -7 54 19 9 16 22 29 27 29 5 0 1 -10 -11 -22 -21 -23 -22 -39 -2
-46 8 -2 10 2 6 13 -5 12 -2 16 11 13 10 -2 20 3 22 10 3 8 -1 10 -14 5 -10
-3 -15 -3 -12 1 12 13 48 15 43 2 -3 -7 2 -13 11 -13 9 0 14 6 11 14 -3 7 4
23 15 34 11 11 17 25 12 32 -5 9 -8 7 -11 -5 -5 -27 -29 -28 -46 -2 -9 13 -12
24 -6 24 5 0 10 -5 10 -11 0 -5 4 -7 10 -4 6 4 7 -1 4 -12 -4 -13 0 -10 15 7
17 21 22 22 30 11 6 -9 6 -22 1 -31 -5 -9 -5 -22 1 -31 5 -7 9 -12 10 -9 0 3
2 14 4 24 2 10 9 22 15 26 9 6 9 9 -1 14 -8 3 -3 3 11 0 20 -5 23 -4 13 7 -23
23 -14 29 10 6 14 -14 18 -25 12 -29 -6 -5 -5 -8 4 -8 10 0 11 -3 3 -13 -7 -8
-7 -18 -2 -27 7 -11 10 -12 10 -2 0 7 4 11 9 7 5 -3 13 0 17 6 4 7 3 9 -4 5
-6 -3 -13 -2 -16 3 -4 5 -2 12 3 15 5 3 7 15 4 26 -3 11 -9 18 -13 15 -11 -7
-27 16 -27 38 0 16 2 16 19 0 10 -9 18 -11 18 -6 0 18 -29 36 -47 29 -16 -5
-16 -5 1 8 16 13 20 12 42 -12 19 -22 23 -24 24 -9 0 9 -4 17 -9 17 -5 0 -11
7 -14 14 -10 25 19 7 31 -19 13 -28 5 -66 -9 -44 -4 8 -11 10 -16 6 -4 -5 -3
-11 2 -15 6 -4 12 -16 13 -27 2 -11 6 -22 9 -25 3 -3 3 5 0 18 -4 16 1 26 16
34 12 7 25 11 29 10 4 -1 4 6 1 16 -6 15 -5 16 12 2 15 -12 17 -12 10 -1 -6
11 -4 13 11 8 14 -5 12 -2 -6 13 -23 18 -23 20 -5 18 11 0 29 0 40 1 17 3 17
4 -5 11 l-25 7 27 11 c14 6 29 16 33 22 6 9 2 9 -13 1 -27 -15 -32 -14 -26 4
3 8 9 14 12 13 16 -3 42 15 42 29 0 8 4 11 10 8 6 -4 7 1 3 12 -6 15 -4 16 9
5 13 -10 18 -10 24 -1 4 7 3 9 -4 5 -6 -3 -13 -2 -17 4 -3 5 2 10 12 11 16 0
16 1 -2 8 -19 8 -19 8 0 19 17 9 18 13 6 24 -11 10 -12 10 -7 0 5 -8 2 -11 -6
-10 -7 2 -12 -3 -10 -10 1 -8 -2 -11 -9 -6 -7 4 -9 3 -5 -4 9 -15 -13 -27 -26
-14 -8 8 -7 16 2 27 7 8 8 15 2 15 -17 0 -31 -25 -22 -40 5 -8 6 -18 3 -23 -3
-5 4 -6 16 -2 13 4 21 2 21 -5 0 -6 -5 -8 -10 -5 -6 3 -13 -1 -17 -11 -6 -15
-7 -15 -14 4 -6 15 -14 20 -26 16 -17 -5 -17 -5 0 6 24 15 22 34 -2 20 -11 -5
-26 -10 -33 -10 -7 0 0 7 17 16 16 8 38 22 47 31 9 8 22 12 29 8 7 -5 10 -3 7
6 -3 8 -11 13 -17 11 -6 -1 -11 3 -11 8 0 6 7 10 16 8 10 -2 19 3 21 10 3 8
-2 10 -14 6 -14 -5 -15 -4 -3 4 8 6 18 8 22 6 13 -8 9 6 -6 21 -7 8 -17 11
-20 7 -4 -3 -4 2 -1 13 7 20 6 20 -9 1 -9 -11 -16 -14 -16 -7 0 7 -4 9 -10 6
-6 -3 -7 1 -4 10 5 11 2 14 -12 9 -16 -6 -17 -5 -6 7 11 12 15 11 27 -4 12
-17 14 -17 30 5 10 14 15 16 12 6 -3 -9 3 -28 14 -42 11 -14 18 -30 14 -35 -3
-5 -1 -12 4 -15 18 -11 21 27 4 47 -10 11 -12 17 -5 13 6 -4 12 -2 12 3 0 6
-7 11 -15 11 -8 0 -15 5 -15 10 0 7 6 7 20 0 11 -6 20 -15 20 -20 0 -5 8 -7
18 -4 13 5 14 4 3 -4 -11 -8 -9 -11 8 -17 12 -3 19 -10 17 -14 -3 -4 1 -8 9
-8 8 0 13 3 10 5 -3 3 0 11 6 18 8 10 5 12 -17 8 -28 -5 -28 -5 -10 15 10 11
22 19 25 16 4 -2 7 6 7 17 0 20 -1 20 -17 -1 -10 -12 -20 -17 -23 -12 -4 5 11
24 31 41 21 18 28 27 16 21 -12 -6 -24 -7 -27 -2 -3 5 4 11 17 15 18 5 19 8 7
16 -12 7 -13 13 -4 27 7 10 19 17 27 17 9 -1 13 4 10 13 -5 11 -9 11 -24 -3
-11 -9 -19 -13 -19 -7 0 13 35 44 43 38 4 -3 4 -2 1 3 -5 7 -9 8 -35 11 -5 0
-7 6 -4 11 4 6 11 7 17 4 6 -4 6 1 -1 14 -11 21 -42 24 -49 3 -2 -6 1 -10 6
-9 6 2 10 1 9 -2 0 -3 5 -16 12 -29 10 -19 10 -22 0 -16 -7 5 -10 4 -5 -3 3
-6 1 -14 -5 -18 -8 -4 -7 -9 2 -15 11 -7 11 -9 1 -9 -10 0 -10 -5 -1 -21 6
-12 7 -19 2 -16 -4 3 -14 -1 -20 -9 -10 -10 -10 -15 5 -23 17 -10 16 -12 -10
-15 -7 -1 -12 -7 -10 -14 1 -7 -4 -12 -10 -12 -9 0 -8 -4 2 -10 8 -5 11 -10 5
-10 -5 1 -18 7 -29 15 -20 15 -13 37 11 33 9 -2 18 2 20 9 3 8 -5 10 -24 7
-15 -3 -29 -9 -31 -15 -2 -5 -8 -9 -14 -9 -6 0 -6 6 2 15 7 8 16 15 21 15 15
0 51 40 37 40 -7 1 -4 6 7 13 22 13 31 37 15 37 -5 0 -10 -6 -10 -12 0 -7 -7
-2 -16 10 -15 21 -15 25 1 42 10 11 15 28 12 39 -3 14 -1 18 9 14 10 -3 12 0
9 10 -8 18 17 29 36 15 11 -8 10 -9 -4 -4 -12 4 -16 2 -11 -6 5 -7 3 -8 -6 -3
-8 5 -11 4 -7 -2 10 -16 50 -8 53 10 1 10 -2 15 -7 11 -5 -3 -9 0 -9 7 0 6 8
9 20 6 12 -3 18 -1 14 5 -3 5 -15 8 -25 5 -10 -3 -20 -2 -22 2 -2 3 -3 1 -1
-4 1 -6 -6 -11 -15 -11 -9 -1 -23 -4 -33 -8 -11 -5 -18 -1 -23 13 -9 28 3 43
26 36 18 -6 19 -5 7 14 -11 18 -14 19 -28 6 -25 -22 -33 -18 -10 5 11 11 25
17 33 15 8 -4 13 2 13 15 0 11 -5 19 -12 16 -7 -3 -9 5 -6 21 3 17 1 24 -6 19
-19 -12 -25 35 -7 53 16 15 16 15 4 -7 -12 -20 -12 -24 4 -33 9 -6 17 -17 17
-25 0 -8 5 -12 10 -9 7 4 7 12 0 24 -5 10 -6 22 -2 26 4 5 -2 5 -13 1 -14 -5
-17 -4 -10 3 11 11 55 4 55 -10 0 -5 -8 -6 -17 -3 -11 4 -14 3 -7 -3 6 -4 10
-16 8 -26 -1 -11 2 -15 9 -10 7 3 4 -3 -5 -14 -20 -22 -23 -33 -9 -33 5 0 12
9 16 19 4 14 12 18 23 14 12 -4 10 0 -5 14 -24 22 -21 35 5 26 15 -4 15 -3 2
6 -13 10 -13 13 4 26 11 8 15 15 9 15 -7 0 -15 -5 -18 -10 -7 -12 -25 -4 -25
11 0 6 4 8 9 5 5 -3 14 1 21 9 9 10 9 15 1 15 -6 0 -11 -5 -11 -11 0 -5 -5 -7
-11 -4 -7 5 -2 17 13 33 22 26 22 26 1 8 -27 -22 -31 -11 -7 16 13 13 14 21 5
31 -6 8 -8 17 -4 21 4 3 -3 13 -15 22 -12 8 -22 20 -22 26 0 6 8 4 18 -5 15
-14 19 -15 19 -2 0 8 -3 13 -6 11 -3 -2 -15 5 -25 15 -14 14 -16 19 -6 19 8 0
3 8 -10 17 -14 9 -26 17 -28 19 -2 1 5 11 16 22 11 11 24 17 28 14 4 -4 4 -1
-1 7 -7 12 -10 11 -20 -2 -7 -10 -15 -17 -19 -17 -9 0 -3 24 9 32 5 4 -3 16
-18 28 -26 21 -27 23 -10 36 17 13 17 14 -2 8 l-20 -6 20 18 c15 13 16 15 3
11 -9 -3 -19 0 -22 9 -3 9 -10 12 -16 9 -5 -3 -10 -2 -10 3 0 6 -6 12 -13 15
-8 3 -14 -1 -14 -9 0 -7 4 -11 8 -8 4 2 6 -5 4 -16 -3 -14 0 -18 8 -13 7 4 7
0 -2 -10 -13 -16 -43 -18 -57 -4 -4 4 -1 14 7 23 8 10 13 20 13 23 -4 18 10
31 27 26 12 -4 19 -2 19 6 0 7 -3 9 -6 6 -13 -12 -43 13 -38 31 5 14 4 14 -4
3 -17 -24 -50 -23 -64 2 -7 12 -11 25 -10 29 1 3 -5 11 -13 18 -15 12 -10 40
7 40 6 0 5 -8 -3 -17 -11 -15 -11 -16 1 -5 22 19 32 14 19 -9 -9 -17 -8 -20 2
-14 8 5 10 4 5 -3 -5 -8 -1 -10 11 -6 11 4 14 2 7 -3 -7 -5 -4 -14 8 -25 10
-10 18 -14 18 -9 0 6 -4 12 -10 16 -5 3 -7 12 -3 20 3 9 -1 15 -11 15 -9 0
-16 5 -16 11 0 5 4 8 8 5 5 -3 9 1 9 9 0 8 -2 13 -5 10 -3 -2 -13 0 -24 6 -14
7 -23 7 -33 -1 -10 -8 -18 -4 -35 20 -12 16 -18 30 -13 30 4 0 -3 7 -15 16
-13 9 -21 22 -18 30 3 8 2 13 -2 12 -16 -5 -53 24 -48 37 3 9 0 12 -10 8 -8
-3 -14 1 -14 11 0 9 -7 16 -15 16 -7 0 -18 6 -22 13 -8 13 -69 57 -131 95
-111 67 -309 129 -480 149 -116 14 -335 8 -528 -13 l-52 -6 19 58 c18 54 55
191 65 239 57 279 69 402 69 705 0 199 -8 355 -20 400 -2 8 -7 35 -9 60 -7 61
-35 208 -46 245 -5 17 -11 41 -14 55 -2 14 -20 79 -40 146 -77 262 -220 571
-375 809 -47 74 -150 216 -161 225 -3 3 -13 15 -21 27 -67 98 -337 371 -489
493 -280 227 -622 417 -960 535 -98 34 -326 97 -395 110 -84 15 -205 35 -243
40 -24 3 -60 9 -80 11 -42 6 -547 15 -553 10z m-3197 -418 c-7 -7 -16 -7 -28
0 -14 8 -13 10 10 10 18 0 24 -4 18 -10z m118 -18 c-13 -11 -28 -20 -33 -20
-6 0 0 9 13 20 13 11 28 20 33 20 6 0 0 -9 -13 -20z m-145 -1 c11 -16 1 -19
-13 -3 -7 8 -8 14 -3 14 5 0 13 -5 16 -11z m-25 -9 c8 -5 12 -11 10 -14 -3 -2
-14 2 -24 10 -22 15 -10 19 14 4z m66 -9 c-4 -5 -1 -11 6 -13 7 -3 5 -7 -6
-11 -11 -5 -15 -3 -10 5 5 8 1 9 -12 5 -18 -7 -18 -7 0 8 23 17 30 19 22 6z
m-82 -14 c16 -12 16 -13 -3 -13 -11 0 -18 3 -15 7 2 4 -2 10 -8 12 -7 3 -8 6
-2 6 5 1 18 -5 28 -12z m62 -41 c1 -9 -2 -14 -7 -10 -5 3 -9 0 -9 -7 0 -8 -6
-6 -18 4 -21 19 -42 22 -42 7 0 -5 -4 -10 -10 -10 -5 0 -10 4 -10 9 0 16 40
23 56 10 11 -9 18 -9 26 -1 9 9 8 12 -5 12 -9 0 -17 5 -17 10 0 17 33 -5 36
-24z m-130 -61 c10 -8 15 -14 9 -14 -5 0 -19 6 -29 14 -11 8 -15 15 -10 15 6
0 19 -7 30 -15z m87 -12 c-7 -3 -13 -12 -13 -21 0 -14 -2 -15 -9 -3 -7 10 -4
19 7 27 9 7 19 10 22 7 3 -3 -1 -8 -7 -10z m-87 -24 c19 -21 19 -21 -10 -44
-28 -23 -29 -23 -7 -34 12 -7 21 -8 21 -2 0 5 -6 12 -12 14 -10 4 -10 6 -1 6
21 2 26 -21 8 -37 -10 -10 -15 -12 -12 -7 3 6 -3 16 -14 23 -14 9 -19 9 -19 0
0 -6 -3 -9 -6 -6 -9 9 18 46 38 51 10 3 18 11 18 17 0 9 -5 9 -17 -1 -16 -13
-17 -12 -5 3 11 14 10 18 -5 27 -10 6 -13 11 -7 11 6 0 19 -9 30 -21z m-26 -3
c0 -3 -4 -8 -10 -11 -5 -3 -10 -1 -10 4 0 6 5 11 10 11 6 0 10 -2 10 -4z m51
-43 c-12 -20 -14 -14 -5 12 4 9 9 14 11 11 3 -2 0 -13 -6 -23z m114 -13 c3 -6
-1 -7 -9 -4 -18 7 -21 14 -7 14 6 0 13 -4 16 -10z m-108 -51 c0 -21 -3 -26 -9
-16 -4 9 -5 22 -2 31 9 23 11 20 11 -15z m-57 1 c0 -5 -4 -10 -10 -10 -5 0
-10 5 -10 10 0 6 5 10 10 10 6 0 10 -4 10 -10z m49 -54 c0 -6 -3 -5 -6 2 -2 6
-8 10 -12 8 -4 -3 -8 5 -8 17 -2 21 -1 22 13 3 8 -11 14 -25 13 -30z m-63 23
c4 -8 9 -7 16 2 8 11 9 10 4 -3 -3 -10 2 -22 12 -27 11 -7 12 -11 4 -11 -7 0
-11 -4 -8 -9 3 -5 -1 -14 -8 -20 -11 -9 -16 -9 -22 0 -4 7 0 17 10 24 15 12
15 15 -10 34 -15 12 -22 21 -16 21 6 0 14 -5 18 -11z m154 -3 c0 -2 -8 -10
-17 -17 -16 -13 -17 -12 -4 4 13 16 21 21 21 13z m-160 -26 c0 -5 -4 -10 -10
-10 -5 0 -10 5 -10 10 0 6 5 10 10 10 6 0 10 -4 10 -10z m-10 -64 c-7 -7 -14
-6 -22 3 -11 10 -9 11 6 5 16 -6 17 -5 7 17 -12 23 -11 23 3 5 11 -13 13 -23
6 -30z m8 -53 c-4 -23 30 -42 42 -23 5 8 12 11 17 7 8 -8 -15 -27 -32 -26 -5
0 -23 11 -40 25 -17 15 -22 24 -12 20 9 -3 17 -3 17 1 0 3 -8 12 -17 20 -16
13 -16 13 5 3 12 -6 21 -18 20 -27z m152 6 c0 -5 -7 -5 -17 -2 -9 4 -14 2 -10
-3 3 -6 1 -16 -4 -24 -7 -11 -8 -8 -5 10 3 14 5 27 6 30 2 3 2 9 1 14 -1 5 5
4 13 -4 9 -7 16 -16 16 -21z m-155 -50 c13 -20 0 -15 -25 9 -23 22 -23 24 -3
13 12 -6 25 -16 28 -22z m-22 -12 c7 4 4 -5 -6 -21 -18 -27 -18 -28 0 -22 23
7 47 -27 38 -55 -7 -20 -25 -27 -25 -9 0 6 5 10 10 10 13 0 13 23 -1 37 -14
14 -41 5 -32 -11 3 -6 2 -7 -2 -3 -13 11 -15 36 -4 43 5 3 9 10 9 15 0 6 -4 7
-10 4 -6 -4 -7 1 -3 11 4 11 8 13 11 6 2 -7 9 -9 15 -5z m152 4 c3 -5 2 -12
-3 -15 -5 -3 -9 1 -9 9 0 17 3 19 12 6z m-91 -44 c-3 -9 -11 -17 -17 -17 -7 0
-7 4 1 12 17 17 15 33 -3 18 -10 -9 -15 -9 -15 -1 0 6 5 11 11 11 5 0 7 6 3
13 -4 6 1 5 10 -4 10 -9 14 -22 10 -32z m746 8 c13 -14 21 -25 18 -25 -2 0
-15 11 -28 25 -13 14 -21 25 -18 25 2 0 15 -11 28 -25z m-663 -20 c0 -8 -4
-12 -9 -9 -4 3 -8 9 -8 15 0 5 4 9 8 9 5 0 9 -7 9 -15z m601 -10 c-3 -3 -9 2
-12 12 -6 14 -5 15 5 6 7 -7 10 -15 7 -18z m-743 -24 c-10 -17 -45 -33 -45
-21 0 5 7 10 15 10 9 0 18 7 22 15 3 9 8 14 10 11 3 -3 2 -9 -2 -15z m785 -53
c0 -19 -16 -5 -17 14 -2 18 0 20 7 8 5 -8 10 -18 10 -22z m-781 13 c9 -6 6 -8
-13 -8 -14 0 -23 3 -20 8 7 11 15 11 33 0z m-39 -32 c0 -6 -4 -7 -10 -4 -5 3
-10 11 -10 16 0 6 5 7 10 4 6 -3 10 -11 10 -16z m34 -5 c3 -8 2 -12 -4 -9 -6
3 -10 1 -10 -6 0 -7 -2 -10 -5 -7 -5 5 4 38 10 38 2 0 6 -7 9 -16z m-30 -30
c5 -14 4 -15 -9 -4 -17 14 -19 20 -6 20 5 0 12 -7 15 -16z m837 -1 c13 -16 12
-17 -3 -4 -10 7 -18 15 -18 17 0 8 8 3 21 -13z m-781 -4 c0 -5 -5 -7 -11 -3
-7 4 -10 1 -7 -7 3 -8 11 -13 17 -11 6 1 11 -2 11 -8 0 -14 -12 -12 -35 6 -17
13 -18 16 -5 24 20 13 30 12 30 -1z m30 -14 c7 -9 8 -15 2 -15 -5 0 -12 7 -16
15 -3 8 -4 15 -2 15 2 0 9 -7 16 -15z m-74 -20 c4 -8 11 -12 16 -9 6 4 5 -3
-1 -15 -14 -25 -23 -28 -14 -4 4 11 3 14 -5 9 -8 -5 -10 -2 -6 9 5 11 2 14
-12 8 -12 -4 -15 -3 -10 5 10 16 26 15 32 -3z m-31 -23 c-3 -3 -11 0 -18 7 -9
10 -8 11 6 5 10 -3 15 -9 12 -12z m84 -15 c0 -9 -2 -8 -6 1 -2 6 -10 9 -15 6
-7 -4 -8 -2 -4 5 9 13 26 5 25 -12z m-63 -34 c-3 -4 -6 -1 -6 6 0 7 -4 9 -10
6 -6 -4 -7 1 -3 11 6 15 7 15 15 -1 6 -9 7 -19 4 -22z m-22 -8 c11 -8 17 -17
14 -21 -4 -3 -16 4 -27 15 -24 24 -15 28 13 6z m17 -43 c5 7 9 9 9 3 0 -5 -4
-16 -9 -23 -7 -11 -9 -11 -14 2 -4 9 -12 15 -18 14 -6 -2 -13 8 -15 21 -4 24
-4 24 17 -3 17 -21 24 -25 30 -14z m-41 -26 c0 -3 -4 -8 -10 -11 -5 -3 -10 -1
-10 4 0 6 5 11 10 11 6 0 10 -2 10 -4z m58 -21 c0 -30 -15 -42 -31 -25 -9 10
-8 12 6 7 11 -4 17 -2 16 6 -2 17 0 37 5 37 2 0 4 -11 4 -25z m-28 1 c0 -2 -7
-6 -15 -10 -8 -3 -15 -1 -15 4 0 6 7 10 15 10 8 0 15 -2 15 -4z m-10 -50 c0
-6 -5 -5 -12 2 -8 8 -15 8 -24 1 -11 -9 -13 2 -5 29 2 6 41 -24 41 -32z m979
-20 c-3 -3 -11 5 -18 17 -13 21 -12 21 5 5 10 -10 16 -20 13 -22z m-979 -5 c0
-3 -5 -13 -11 -21 -9 -13 -10 -12 -5 2 3 10 1 20 -3 23 -5 2 -11 -4 -14 -15
-3 -11 -11 -20 -19 -20 -8 0 -9 3 -2 8 6 4 13 15 17 24 6 16 37 15 37 -1z m46
-38 c15 -20 23 -33 16 -29 -13 8 -56 66 -49 66 3 0 17 -17 33 -37z m-26 -11
c0 -15 -2 -15 -10 -2 -13 20 -13 33 0 25 6 -3 10 -14 10 -23z m-27 -1 c4 0 7
-6 7 -13 0 -9 -3 -9 -12 0 -17 17 -33 15 -18 -3 7 -8 8 -15 4 -15 -5 0 -14 8
-21 19 -11 18 -6 20 40 12z m-44 -30 c8 -14 7 -20 -2 -24 -7 -3 -12 5 -12 19
0 29 1 29 14 5z m94 4 c4 -8 1 -17 -5 -21 -7 -4 -8 -3 -4 4 4 7 2 12 -3 12 -6
0 -11 -3 -11 -8 0 -4 -9 -13 -21 -20 -12 -8 -18 -9 -15 -4 3 6 1 13 -4 15 -6
3 -5 4 2 3 7 -1 21 6 32 16 24 22 23 22 29 3z m-76 -50 c-4 -8 -2 -17 3 -20
16 -10 7 -42 -10 -38 -10 3 -21 -6 -30 -21 -7 -14 -15 -24 -17 -22 -3 2 7 22
21 44 19 31 22 42 13 52 -9 10 -9 11 1 6 6 -4 12 -2 12 3 0 6 3 11 6 11 3 0 4
-7 1 -15z m57 0 c-4 -8 -11 -12 -16 -9 -6 4 -5 10 3 15 19 12 19 11 13 -6z
m-26 -30 c-3 -3 -9 2 -12 12 -6 14 -5 15 5 6 7 -7 10 -15 7 -18z m-58 11 c0
-3 -4 -8 -10 -11 -5 -3 -10 -1 -10 4 0 6 5 11 10 11 6 0 10 -2 10 -4z m18 -70
c-7 -8 -15 -12 -17 -11 -5 6 10 25 20 25 5 0 4 -6 -3 -14z m-26 -33 c-6 -2
-10 -9 -7 -14 4 -5 -1 -6 -10 -2 -13 5 -14 7 -3 14 7 5 18 8 23 8 6 0 4 -3 -3
-6z m417 -319 c-6 -8 -17 -14 -23 -14 -6 0 -3 5 7 11 9 6 14 15 11 21 -4 7 -2
8 5 4 9 -6 9 -11 0 -22z m31 -48 c0 -6 -5 -3 -11 8 -9 15 -13 16 -20 5 -11
-18 -12 -32 -1 -25 4 2 14 -4 21 -16 7 -11 8 -17 3 -14 -6 3 -12 3 -15 -1 -2
-5 -2 -2 -1 5 2 6 -1 12 -6 12 -5 0 -14 10 -21 21 -6 12 -7 19 -1 15 5 -3 13
1 16 10 5 13 9 14 21 4 8 -7 15 -18 15 -24z m-60 -58 c0 6 5 12 11 12 8 0 7
-6 -2 -17 -12 -15 -12 -16 6 -9 17 6 18 5 7 -6 -11 -11 -17 -9 -33 11 -10 13
-19 28 -19 35 1 6 7 0 15 -14 8 -14 14 -19 15 -12z m80 7 c0 -2 -10 -9 -22
-15 -22 -11 -22 -10 -4 4 21 17 26 19 26 11z m-104 -27 c4 -7 3 -8 -4 -4 -7 4
-12 2 -12 -5 0 -7 -3 -10 -6 -6 -6 5 3 27 11 27 2 0 7 -5 11 -12z m80 -20 c5
-8 2 -9 -10 -5 -14 6 -17 3 -12 -8 3 -9 2 -13 -4 -10 -6 3 -10 1 -10 -6 0 -7
-6 -5 -14 6 -9 12 -19 16 -32 11 -15 -6 -17 -5 -6 6 10 10 17 10 31 1 15 -10
20 -9 25 2 7 18 22 19 32 3z m-80 -45 c-3 -3 -12 -1 -19 5 -8 7 -18 8 -22 4
-5 -4 -5 -1 -1 6 5 9 12 9 27 1 12 -6 18 -13 15 -16z m-16 -13 c8 -5 11 -10 5
-10 -5 0 -17 5 -25 10 -8 5 -10 10 -5 10 6 0 17 -5 25 -10z m70 -3 c0 -5 -9
-6 -20 -2 -16 5 -19 3 -14 -12 5 -14 4 -15 -4 -3 -6 8 -9 17 -6 21 6 10 44 7
44 -4z m-102 -27 c-7 -11 -16 -20 -20 -20 -5 0 -3 9 4 20 7 11 16 20 20 20 5
0 3 -9 -4 -20z m64 -35 c9 -20 9 -20 -6 -1 -9 11 -16 27 -15 35 0 14 1 14 6 1
3 -8 10 -24 15 -35z m-42 5 c-20 -13 -33 -13 -25 0 3 6 14 10 23 10 15 0 15
-2 2 -10z m80 -20 c0 -5 -4 -10 -10 -10 -5 0 -10 5 -10 10 0 6 5 10 10 10 6 0
10 -4 10 -10z m-110 -10 c0 -5 -8 -10 -17 -10 -15 0 -16 2 -3 10 19 12 20 12
20 0z m-20 -30 c0 -5 6 -10 14 -10 8 0 18 -4 21 -10 10 -17 -11 -11 -36 10
-13 10 -18 19 -11 20 6 0 12 -4 12 -10z m-20 -19 c0 -6 -4 -12 -8 -15 -5 -3
-9 1 -9 9 0 8 4 15 9 15 4 0 8 -4 8 -9z m30 -21 c0 -5 -4 -10 -10 -10 -5 0
-10 5 -10 10 0 6 5 10 10 10 6 0 10 -4 10 -10z m25 -21 c-4 -5 -12 -9 -20 -9
-17 0 -27 -27 -12 -34 8 -3 8 -5 1 -5 -6 -1 -18 7 -25 16 -8 9 -9 14 -3 10 7
-4 14 0 18 8 3 8 13 15 21 15 10 0 13 5 9 12 -4 7 -3 8 5 4 6 -4 9 -12 6 -17z
m-55 2 c0 -5 -7 -11 -15 -15 -8 -3 -14 -11 -13 -18 2 -6 -5 -13 -15 -14 -13
-1 -13 -1 -2 3 13 4 14 7 3 21 -10 12 -10 14 0 8 7 -4 15 -1 18 8 7 17 24 22
24 7z m125 -98 c-14 -13 -20 -23 -13 -23 9 0 9 -3 -2 -10 -8 -5 -11 -10 -6
-10 5 0 -1 -11 -14 -25 -13 -14 -21 -28 -17 -31 3 -4 2 -15 -4 -26 -9 -17 -12
-17 -40 12 l-31 30 24 20 c12 11 19 19 14 20 -5 0 -1 9 9 20 10 11 22 17 26
14 5 -3 9 0 9 5 0 6 -6 11 -14 11 -7 0 -20 7 -27 17 -13 15 -12 15 8 5 29 -16
34 -15 27 3 -4 8 -1 15 6 15 6 0 9 -4 6 -9 -7 -11 22 -23 35 -15 5 3 9 11 9
17 0 7 -4 6 -10 -3 -5 -8 -12 -11 -17 -7 -4 5 -1 12 7 17 11 7 19 4 28 -8 11
-15 9 -20 -13 -39z m-116 38 c11 -7 9 -10 -9 -16 -12 -4 -27 -2 -32 3 -8 8 -4
9 13 6 19 -5 21 -4 9 5 -18 13 -1 15 19 2z m-50 -35 c-3 -3 -11 5 -18 17 -13
21 -12 21 5 5 10 -10 16 -20 13 -22z m81 -7 c0 -6 -4 -7 -10 -4 -5 3 -10 11
-10 16 0 6 5 7 10 4 6 -3 10 -11 10 -16z m-100 1 c0 -5 -10 -14 -22 -20 -21
-10 -21 -10 -6 3 10 8 15 17 11 20 -3 4 -1 7 5 7 7 0 12 -4 12 -10z m64 -1
c-2 -4 2 -9 8 -12 7 -2 11 -7 8 -10 -3 -3 -16 2 -28 12 -21 16 -22 17 -3 17
11 0 18 -3 15 -7z m-4 -45 c0 -14 -25 -26 -34 -17 -3 4 -6 11 -6 17 0 6 4 5 9
-3 6 -9 11 -10 15 -2 4 6 0 14 -8 17 -9 3 -16 10 -16 15 0 5 9 4 20 -3 11 -7
20 -18 20 -24z m-53 4 c-3 -8 -6 -5 -6 6 -1 11 2 17 5 13 3 -3 4 -12 1 -19z
m-22 3 c-3 -5 -1 -12 5 -16 17 -10 11 -25 -14 -36 -16 -8 -22 -17 -19 -28 7
-17 5 -16 -17 12 -7 10 -9 17 -4 16 18 -3 34 1 33 9 -1 4 0 10 1 15 1 4 4 12
5 17 1 6 3 12 4 15 0 3 4 5 7 5 3 0 3 -4 -1 -9z m26 -58 c-12 -20 -14 -14 -5
12 4 9 9 14 11 11 3 -2 0 -13 -6 -23z m34 7 c-3 -5 -1 -10 4 -10 6 0 11 -10
10 -22 l0 -23 -9 23 c-11 25 -20 29 -20 8 0 -8 7 -22 16 -30 8 -9 12 -16 7
-16 -14 0 -33 23 -33 40 0 9 5 21 12 28 15 15 21 16 13 2z m-40 -46 c16 -24
16 -26 -2 -39 -10 -7 -20 -11 -22 -9 -3 2 3 10 13 17 16 12 15 14 -4 35 -11
12 -17 22 -12 22 6 0 17 -12 27 -26z m-73 -9 c-8 -16 -9 -16 -15 -1 -4 10 -3
15 3 11 6 -3 10 -1 10 6 0 7 3 10 6 6 3 -3 2 -13 -4 -22z m44 6 c-4 -5 0 -12
6 -15 7 -3 2 -3 -11 0 -15 4 -21 2 -17 -4 4 -6 -3 -16 -14 -22 -11 -6 -20 -7
-21 -3 0 4 -4 -2 -9 -14 -5 -13 -15 -23 -22 -23 -10 0 -10 2 0 9 7 4 14 17 15
29 1 14 5 18 12 12 6 -5 17 -5 25 0 8 6 11 10 5 10 -5 0 -1 7 9 15 23 17 30
19 22 6z m-38 -71 c-7 -10 -14 -17 -17 -15 -4 4 18 35 25 35 2 0 -1 -9 -8 -20z
m36 -31 c-3 -5 0 -9 7 -9 6 0 0 -10 -15 -21 -29 -23 -53 -15 -35 11 9 13 10
12 5 -2 -6 -21 5 -23 22 -6 9 9 7 14 -5 23 -9 7 -13 17 -9 24 6 9 11 9 22 0 7
-6 11 -15 8 -20z m-58 -1 c3 -5 1 -15 -6 -21 -10 -9 -12 -8 -6 7 5 13 2 17 -9
13 -8 -4 -16 -3 -19 1 -3 4 4 8 14 9 11 1 22 -3 26 -9z m168 -13 c-9 -14 -18
-25 -21 -25 -5 0 5 18 20 38 17 22 18 13 1 -13z m-165 -49 c1 -5 -5 -3 -13 3
-11 9 -13 6 -13 -14 0 -13 3 -22 8 -19 5 3 9 0 9 -6 0 -7 -6 -10 -12 -7 -7 2
-13 18 -13 35 0 17 -4 34 -8 38 -4 4 -7 2 -7 -4 0 -7 -8 -12 -17 -12 -17 1
-17 1 0 11 10 6 14 15 10 22 -4 7 7 1 24 -13 18 -14 32 -29 32 -34z m-879 34
c0 -5 5 -10 11 -10 5 0 8 4 5 8 -6 10 40 10 49 0 4 -4 13 -4 19 -2 12 5 15 -4
18 -59 1 -15 7 -26 13 -24 11 4 11 42 0 69 -5 13 -2 17 14 15 14 -1 17 -5 11
-11 -23 -23 -8 -27 17 -5 20 18 24 19 13 4 -8 -11 -19 -23 -24 -26 -4 -4 -3
-9 2 -13 6 -3 20 7 31 22 11 16 27 29 35 29 9 0 14 -2 12 -4 -2 -3 -6 -3 -9
-1 -5 4 -57 -57 -57 -68 0 -4 11 3 25 16 14 13 25 20 25 16 0 -4 12 6 26 21
l26 28 -20 -30 c-21 -32 -25 -63 -10 -82 6 -7 4 -14 -3 -19 -7 -4 -9 -3 -5 4
9 15 -12 26 -28 13 -7 -6 -16 -8 -20 -4 -13 13 -37 11 -43 -3 -4 -11 -9 -11
-31 0 -15 7 -35 12 -45 10 -10 -1 -21 4 -24 12 -4 12 -8 11 -20 -6 l-15 -21
-16 23 c-9 12 -18 31 -19 40 -3 20 12 24 23 6 5 -7 3 -8 -7 -3 -8 5 -5 -2 6
-16 11 -13 21 -26 22 -28 1 -2 1 6 0 17 0 11 -6 18 -12 16 -5 -3 -1 2 10 12
l20 17 -20 -7 c-16 -6 -18 -5 -7 5 10 11 16 10 30 -5 9 -11 11 -15 3 -11 -9 5
-12 3 -9 -5 4 -12 38 -24 38 -13 0 26 -42 59 -88 69 -26 5 -25 14 1 14 15 0
27 -4 27 -10z m946 -25 c-3 -9 -10 -13 -16 -10 -5 3 -10 -1 -10 -9 0 -9 -2
-16 -4 -16 -2 0 -11 -3 -20 -6 -9 -3 -16 -1 -16 6 0 6 4 9 9 5 6 -3 15 4 21
15 6 11 15 18 21 15 5 -4 9 2 9 11 0 10 3 15 6 11 4 -3 4 -13 0 -22z m-953 2
c-2 -4 -5 -7 -8 -7 -3 0 -9 0 -15 0 -5 0 -10 4 -10 9 0 5 8 8 18 7 9 -2 16 -6
15 -9z m308 -10 c-10 -9 -11 -8 -5 6 3 10 9 15 12 12 3 -3 0 -11 -7 -18z m181
9 c6 4 8 2 5 -3 -4 -6 3 -13 15 -16 12 -4 19 -9 15 -13 -9 -9 -57 24 -56 39 0
9 2 9 6 -1 2 -6 10 -9 15 -6z m-23 -38 c-3 -26 1 -39 11 -33 5 3 7 13 4 23 -4
10 -2 13 3 7 15 -18 35 -16 59 6 12 11 27 18 32 15 14 -8 9 -73 -6 -86 -6 -6
-10 -7 -7 -4 3 4 -3 13 -12 19 -14 10 -20 10 -31 -1 -14 -15 -36 -9 -26 7 3 5
10 7 15 4 5 -3 6 1 3 10 -6 14 -9 14 -29 -5 -12 -11 -25 -17 -29 -13 -4 4 -9
-2 -12 -14 -4 -13 -12 -20 -22 -18 -10 2 -20 4 -24 4 -5 1 -8 6 -8 12 0 6 8 8
19 4 11 -3 22 -1 26 4 4 7 -1 9 -12 5 -16 -5 -16 -4 -3 8 21 19 25 49 5 42 -8
-3 -15 -1 -15 6 0 6 4 8 10 5 5 -3 15 3 22 14 10 17 14 18 21 6 4 -8 7 -21 6
-27z m81 32 c0 -5 -4 -10 -10 -10 -5 0 -10 5 -10 10 0 6 5 10 10 10 6 0 10 -4
10 -10z m60 6 c0 -3 -4 -8 -10 -11 -5 -3 -10 -1 -10 4 0 6 5 11 10 11 6 0 10
-2 10 -4z m50 -2 c0 -8 -19 -13 -24 -6 -3 5 1 9 9 9 8 0 15 -2 15 -3z m59 -7
c13 4 13 2 -1 -7 -19 -11 -26 -36 -8 -25 17 10 11 -7 -7 -22 -17 -14 -17 -14
0 -9 11 4 27 -3 42 -18 19 -19 25 -21 29 -9 3 8 2 12 -2 10 -4 -2 -15 4 -24
15 -10 10 -15 18 -10 18 13 -1 47 -31 47 -43 1 -7 7 -11 14 -9 7 1 10 -1 8 -5
-9 -14 -82 -9 -79 5 2 13 -14 17 -21 5 -2 -5 -2 -3 -1 4 2 6 -4 14 -12 17 -12
5 -14 1 -10 -17 3 -12 3 -16 0 -9 -3 6 -11 9 -16 6 -6 -4 -8 -2 -5 3 4 6 0 13
-8 16 -8 4 -16 -2 -20 -14 -6 -18 -26 -28 -24 -11 1 4 1 9 -1 12 -1 3 -3 17
-5 32 -3 22 -1 25 10 15 7 -6 11 -15 8 -19 -5 -10 11 -10 20 -1 4 3 -3 17 -15
30 -12 13 -17 23 -11 23 6 0 13 -6 16 -12 4 -10 7 -10 18 0 7 6 18 12 24 12 5
0 2 -5 -7 -11 -10 -5 -18 -15 -18 -21 0 -7 5 -6 15 2 8 7 15 9 15 5 0 -4 -8
-14 -17 -21 -16 -12 -16 -13 -2 -14 30 0 43 38 25 70 -7 12 -6 12 4 3 7 -6 20
-9 29 -6z m69 -21 c1 -15 -1 -17 -7 -7 -5 7 -15 17 -22 22 -10 6 -8 8 7 7 12
-1 21 -10 22 -22z m52 5 c0 -5 -9 -7 -20 -4 -11 3 -20 7 -20 9 0 2 9 4 20 4
11 0 20 -4 20 -9z m-90 -11 c0 -5 -4 -10 -10 -10 -5 0 -10 5 -10 10 0 6 5 10
10 10 6 0 10 -4 10 -10z m6814 -1797 c-5 -15 -3 -15 10 1 13 16 16 17 16 4 0
-18 -27 -32 -35 -18 -4 6 -3 15 0 20 10 16 15 12 9 -7z m51 8 c-3 -5 4 -12 15
-16 11 -3 20 -12 20 -20 0 -9 -8 -7 -24 8 -21 19 -26 37 -10 37 3 0 3 -4 -1
-9z m-93 -23 c-7 -7 -12 -8 -12 -2 0 14 12 26 19 19 2 -3 -1 -11 -7 -17z m-27
-6 c-3 -3 -11 0 -18 7 -9 10 -8 11 6 5 10 -3 15 -9 12 -12z m-6 -18 c3 -4 -2
-4 -12 -1 -15 6 -17 3 -12 -12 9 -28 -7 -32 -35 -9 l-25 20 28 -16 c29 -17 31
-17 21 8 -3 9 -11 13 -17 9 -6 -3 -7 -1 -3 5 7 11 44 8 55 -4z m61 6 c0 -5 -4
-10 -10 -10 -5 0 -10 5 -10 10 0 6 5 10 10 10 6 0 10 -4 10 -10z m60 0 c0 -5
-4 -10 -10 -10 -5 0 -10 5 -10 10 0 6 5 10 10 10 6 0 10 -4 10 -10z m45 -27
c-10 -7 -17 -14 -14 -16 2 -2 14 -11 27 -19 14 -10 19 -18 13 -23 -6 -3 -11
-2 -11 4 0 11 -18 9 -44 -6 -13 -7 -15 -12 -7 -18 13 -8 -3 -35 -21 -35 -6 0
-5 7 2 15 9 11 10 18 1 28 -6 8 -8 17 -4 20 3 4 -2 7 -12 7 -17 0 -17 1 -3 13
8 6 22 23 32 37 9 13 16 20 16 15 0 -6 -7 -19 -15 -29 -20 -26 -19 -32 5 -32
15 0 18 5 14 18 -3 11 1 20 10 24 9 3 16 14 17 23 0 12 2 13 6 2 3 -8 -2 -20
-12 -28z m-79 18 c-4 -5 0 -11 6 -14 10 -4 11 -7 1 -18 -19 -20 -41 4 -23 26
14 16 25 21 16 6z m-66 -15 c0 -2 -7 -7 -16 -10 -8 -3 -12 -2 -9 4 6 10 25 14
25 6z m65 -59 c6 -5 3 -7 -7 -3 -25 8 -40 -24 -23 -47 8 -11 16 -14 19 -8 4 5
2 12 -4 16 -5 3 -10 10 -10 16 0 7 10 7 49 0 2 -1 -2 -7 -8 -15 -9 -11 -5 -17
16 -31 27 -18 28 -18 13 0 -14 17 -13 18 2 12 13 -4 15 -2 11 10 -4 9 -2 14 3
10 6 -3 16 -1 24 5 12 8 12 9 -2 4 -20 -6 -35 11 -21 25 16 16 52 -18 46 -43
-13 -61 -37 -128 -45 -128 -5 0 -7 -4 -3 -9 3 -6 -2 -14 -11 -19 -9 -5 -15
-11 -13 -13 6 -9 -52 -89 -66 -89 -7 0 -17 -5 -21 -12 -4 -7 -3 -8 4 -4 7 4
12 2 12 -4 0 -7 -6 -10 -12 -8 -15 5 -20 46 -7 54 5 3 9 0 9 -5 0 -6 5 -11 11
-11 8 0 8 4 0 14 -10 11 -8 17 6 25 17 11 17 11 -1 9 -10 -2 -21 3 -23 10 -3
8 1 10 14 5 20 -7 18 -5 -12 17 -11 8 -17 11 -13 6 4 -5 3 -18 -3 -29 -9 -15
-8 -18 3 -12 7 3 4 -1 -6 -9 -15 -12 -17 -19 -8 -28 8 -8 9 -15 1 -25 -8 -9
-8 -13 0 -13 6 0 11 -7 11 -16 0 -9 -5 -12 -12 -8 -8 5 -9 1 -5 -12 7 -18 6
-18 -7 -1 -8 10 -17 17 -20 15 -2 -2 -14 7 -26 20 -11 12 -16 22 -11 22 6 0
14 -8 19 -17 14 -24 41 -25 39 -2 -1 21 -17 27 -17 7 -1 -7 -8 0 -16 15 -16
29 -14 44 5 33 6 -4 8 -13 4 -21 -4 -11 -1 -13 11 -9 12 5 13 10 5 25 -5 10
-15 19 -21 19 -6 0 -8 3 -5 6 4 4 14 1 24 -7 15 -12 16 -12 10 4 -4 10 -3 16
2 13 5 -3 12 1 15 10 4 11 2 15 -7 11 -7 -3 -19 5 -26 16 -11 18 -11 20 0 10
16 -16 39 -17 39 -2 0 5 -4 8 -9 5 -5 -3 -14 1 -21 9 -7 8 -16 12 -21 9 -5 -3
-9 0 -9 6 0 7 8 9 20 5 11 -4 20 -2 20 4 0 6 -4 11 -10 11 -5 0 -10 5 -10 11
0 8 5 7 15 -1 9 -7 13 -21 10 -31 -5 -14 -2 -17 13 -14 13 2 19 -2 18 -12 0
-9 5 -18 12 -20 6 -3 12 0 12 7 0 6 -4 8 -10 5 -5 -3 -10 -2 -10 3 0 6 7 12
15 16 8 3 15 0 15 -6 0 -6 3 -8 6 -5 4 4 1 13 -5 21 -8 10 -9 16 -1 21 5 3 10
1 10 -4 0 -6 4 -11 8 -11 5 0 9 7 9 15 0 8 -5 11 -10 8 -5 -3 -8 0 -5 8 3 8
14 14 26 14 11 0 23 3 27 6 3 4 -8 5 -24 4 -18 -1 -36 4 -43 13 -11 13 -10 14
10 8 17 -6 22 -3 22 11 0 15 -2 16 -10 3 -5 -8 -10 -10 -10 -4 0 6 -7 11 -15
11 -8 0 -12 -4 -9 -9 3 -4 0 -8 -5 -8 -6 0 -11 -5 -11 -11 0 -5 6 -7 13 -3 8
5 8 2 -2 -9 -7 -9 -10 -17 -6 -17 4 0 2 -6 -4 -13 -6 -8 -8 -17 -4 -20 3 -4 2
-7 -4 -7 -9 0 -19 19 -28 58 -2 6 1 12 6 12 6 0 9 -7 7 -16 -2 -10 2 -19 7
-21 16 -5 12 61 -5 83 -14 18 -14 18 4 4 18 -14 19 -13 14 1 -4 9 0 26 9 38
13 20 13 24 -1 40 -9 10 -16 21 -16 26 0 4 10 -5 22 -21 12 -16 27 -33 33 -37z
m109 37 c3 -8 2 -12 -4 -9 -6 3 -10 10 -10 16 0 14 7 11 14 -7z m-157 -28 c-2
-6 -16 -12 -32 -13 -28 -2 -28 -2 -6 13 12 9 18 20 14 27 -4 7 1 6 10 -2 10
-8 16 -19 14 -25z m-80 13 c8 -8 13 -8 17 0 4 6 13 11 19 11 7 0 3 -7 -7 -15
-10 -8 -22 -12 -27 -10 -4 3 -14 -4 -22 -15 -13 -19 -15 -19 -21 -4 -4 9 -4
19 -1 22 3 3 5 0 5 -8 0 -10 3 -10 16 1 14 12 14 14 -3 20 -13 6 -14 8 -2 8 8
1 20 -4 26 -10z m1573 -24 c-12 -14 -50 -9 -50 7 0 5 4 7 8 4 4 -2 14 -1 22 4
19 12 34 1 20 -15z m-1572 -30 c0 -14 -4 -28 -9 -30 -6 -4 -6 39 0 53 4 9 9
-2 9 -23z m19 -7 c-3 -8 -6 -5 -6 6 -1 11 2 17 5 13 3 -3 4 -12 1 -19z m43 18
c0 -2 -7 -7 -16 -10 -8 -3 -12 -2 -9 4 6 10 25 14 25 6z m1581 -28 c1 -4 2
-17 3 -27 0 -10 9 -27 18 -37 11 -13 15 -31 13 -56 -3 -30 0 -40 16 -48 11 -6
17 -15 14 -20 -3 -5 -1 -11 5 -15 6 -4 8 -11 4 -16 -3 -6 4 -21 17 -35 19 -20
20 -24 6 -24 -9 0 -17 -5 -17 -11 0 -5 4 -8 8 -5 4 2 14 0 22 -5 13 -8 11 -13
-8 -28 -12 -11 -18 -22 -13 -25 13 -8 7 -39 -9 -44 -9 -3 -11 1 -7 12 5 14 3
16 -12 11 -20 -6 -34 15 -25 39 3 7 -7 23 -22 35 -15 11 -21 21 -15 21 7 0 23
-12 36 -27 13 -16 25 -22 25 -15 0 15 -29 47 -50 55 -13 5 -13 6 1 6 8 1 25
-8 37 -19 12 -12 22 -16 22 -11 0 6 -13 20 -30 33 -31 22 -39 38 -19 38 5 0 7
-4 4 -10 -3 -5 -2 -10 2 -10 5 0 14 9 20 19 11 18 10 20 -25 18 -26 -1 -36 2
-34 11 2 9 -5 12 -20 8 -13 -3 -17 -3 -11 0 9 4 9 12 -4 30 -14 22 -14 24 1
18 9 -3 14 -10 11 -15 -3 -4 4 -13 15 -19 11 -6 18 -15 15 -21 -9 -13 8 -11
30 4 12 10 14 16 7 21 -7 4 -12 2 -12 -3 0 -8 -7 -7 -19 1 -11 7 -19 14 -19
17 2 19 -3 32 -10 27 -4 -2 -9 4 -9 15 -1 12 2 17 9 13 8 -5 9 -1 5 10 -4 10
-3 15 3 11 6 -3 10 -2 10 4 0 20 -19 21 -30 1 -6 -11 -16 -20 -23 -20 -8 0 -8
3 2 9 11 7 10 11 -5 20 -18 11 -17 12 3 6 26 -7 59 31 43 50 -7 8 -5 12 5 12
8 0 16 -4 16 -9z m-1615 -24 c-9 -9 -20 -14 -23 -10 -4 3 2 13 13 20 25 18 31
12 10 -10z m-66 -4 c0 -5 -4 -10 -10 -10 -5 0 -10 5 -10 10 0 6 5 10 10 10 6
0 10 -4 10 -10z m100 0 c0 -5 -8 -10 -17 -10 -15 0 -16 2 -3 10 19 12 20 12
20 0z m-55 -48 c2 -13 0 -20 -6 -17 -5 4 -9 0 -9 -8 0 -24 -28 -41 -43 -28 -8
6 -18 7 -23 3 -5 -4 -5 -3 -1 3 5 6 10 8 11 5 2 -3 11 2 22 10 18 14 18 14 5
-2 -8 -11 -9 -18 -3 -18 13 0 40 52 35 67 -6 16 -33 5 -33 -12 0 -8 -4 -17
-10 -20 -17 -11 -11 14 9 34 11 11 18 21 17 24 -2 2 3 -1 11 -7 7 -7 15 -22
18 -34z m-74 5 c-10 -9 -11 -8 -5 6 3 10 9 15 12 12 3 -3 0 -11 -7 -18z m179
-18 c-15 -28 -30 -23 -17 5 7 13 15 22 19 20 5 -3 3 -14 -2 -25z m-176 -71
c-6 -20 -5 -21 10 -9 13 11 19 11 31 1 8 -7 15 -20 14 -29 0 -11 -3 -9 -9 7
-5 12 -15 22 -21 22 -8 0 -7 -5 2 -17 12 -15 12 -16 -1 -8 -24 15 -38 14 -44
-1 -3 -8 0 -14 6 -14 6 0 9 -3 5 -6 -3 -3 -10 -3 -16 1 -7 4 -6 16 5 37 15 29
15 30 -1 25 -9 -4 -14 -3 -10 3 3 6 13 10 21 10 11 0 13 -6 8 -22z m66 12 c0
-5 -4 -10 -10 -10 -5 0 -10 5 -10 10 0 6 5 10 10 10 6 0 10 -4 10 -10z m20
-30 c0 -5 -4 -10 -10 -10 -5 0 -10 5 -10 10 0 6 5 10 10 10 6 0 10 -4 10 -10z
m-60 -46 c0 -8 5 -14 12 -14 6 0 8 -3 4 -7 -4 -5 -14 1 -22 11 -16 23 -19 40
-4 31 6 -3 10 -13 10 -21z m120 12 c0 -2 -8 -10 -17 -17 -16 -13 -17 -12 -4 4
13 16 21 21 21 13z m1540 -6 c0 -5 -5 -10 -11 -10 -5 0 -7 5 -4 10 3 6 8 10
11 10 2 0 4 -4 4 -10z m-1705 -18 c-3 -3 -11 0 -18 7 -9 10 -8 11 6 5 10 -3
15 -9 12 -12z m20 -12 c-5 -16 -3 -19 12 -14 11 4 9 0 -7 -12 -32 -23 -31 -24
-41 4 -6 15 -5 21 1 17 6 -3 10 -13 10 -21 0 -8 5 -12 10 -9 6 4 8 10 5 15 -5
9 4 40 12 40 2 0 2 -9 -2 -20z m1693 -10 c-15 -24 -25 -26 -25 -5 0 8 4 12 9
9 4 -3 8 0 8 5 0 6 5 11 10 11 6 0 5 -8 -2 -20z m-1661 -27 c-9 -2 -15 -8 -12
-13 3 -5 12 -7 20 -4 8 4 18 -1 21 -10 3 -9 10 -14 14 -11 5 3 11 1 14 -4 4
-5 2 -12 -3 -15 -5 -4 -12 -2 -16 4 -12 20 -26 10 -14 -11 8 -15 8 -19 0 -15
-6 4 -11 3 -11 -1 0 -5 -9 -9 -20 -10 -11 -1 -18 2 -15 8 4 5 13 9 21 9 8 0
14 3 14 8 -1 10 -30 48 -30 38 0 -4 -5 -4 -10 -1 -15 9 8 35 29 34 13 -1 13
-2 -2 -6z m-77 -18 c0 5 5 4 12 -3 9 -9 9 -15 -1 -24 -10 -11 -11 -9 -5 5 4
12 2 17 -6 15 -7 -2 -15 4 -17 12 -4 13 -3 13 6 0 6 -8 11 -11 11 -5z m1722
-27 c-6 -6 -7 0 -4 19 5 21 7 23 10 9 2 -10 0 -22 -6 -28z m-1664 -19 c-6 -4
-18 -4 -27 -1 -10 4 -11 7 -3 10 7 2 9 8 6 14 -3 5 3 4 15 -3 13 -9 16 -16 9
-20z m1712 23 c0 -5 -12 -14 -27 -21 l-28 -12 25 21 c29 22 30 23 30 12z
m-1770 -37 c0 -5 -5 -3 -10 5 -5 8 -10 20 -10 25 0 6 5 3 10 -5 5 -8 10 -19
10 -25z m6 -10 c8 10 16 17 18 14 2 -2 -2 -13 -10 -23 -11 -16 -16 -17 -29 -6
-8 7 -15 18 -15 24 0 6 6 2 12 -8 10 -19 11 -19 24 -1z m1764 11 c0 -2 3 -11
6 -20 3 -9 1 -16 -5 -16 -6 0 -10 5 -8 11 1 6 -3 13 -9 16 -18 6 -11 -31 6
-39 11 -6 10 -7 -5 -5 -13 2 -19 9 -17 21 2 13 -1 16 -10 10 -10 -6 -10 -4 1
9 12 15 41 24 41 13z m-1725 -38 c-9 -6 -19 -7 -22 -4 -4 3 -1 6 6 6 7 0 9 4
6 10 -4 6 1 7 11 3 15 -6 15 -7 -1 -15z m-60 -25 c1 -14 -3 -19 -12 -16 -10 4
-11 9 -3 18 8 9 8 15 0 18 -6 3 -6 5 1 3 7 -1 13 -12 14 -23z m1772 -20 c-10
-3 -14 -10 -11 -16 4 -7 4 -9 -1 -5 -4 4 -15 2 -24 -4 -10 -8 -9 -4 3 10 11
12 26 21 35 21 13 -1 13 -2 -2 -6z m23 -23 c0 -5 -4 -10 -10 -10 -5 0 -10 5
-10 10 0 6 5 10 10 10 6 0 10 -4 10 -10z m-35 -20 c-3 -5 -11 -10 -16 -10 -6
0 -7 5 -4 10 3 6 11 10 16 10 6 0 7 -4 4 -10z m20 -10 c-3 -5 -2 -10 4 -10 5
0 12 6 14 13 4 9 6 9 6 -1 1 -7 -6 -15 -14 -18 -8 -4 -12 -11 -9 -16 4 -6 -3
-5 -15 1 -24 13 -28 23 -6 14 9 -3 15 -2 14 3 -2 14 0 24 7 24 3 0 2 -4 -1
-10z m-41 -50 c-6 -6 -10 -3 -10 10 0 13 4 16 10 10 7 -7 7 -13 0 -20z m26
-21 c0 -5 5 -7 12 -3 7 4 8 3 4 -5 -6 -9 -11 -9 -22 0 -17 14 -18 19 -4 19 6
0 10 -5 10 -11z m-35 -37 c-17 -15 -18 -15 -6 0 7 9 9 23 5 30 -6 10 -4 11 7
0 11 -10 10 -15 -6 -30z m40 -2 c-19 -8 -17 -11 14 -14 8 0 15 -7 17 -14 1 -7
0 -8 -3 -2 -2 5 -9 10 -14 10 -6 0 -7 -4 -4 -10 11 -17 -7 -11 -21 8 -12 15
-13 15 -14 1 0 -20 -27 -33 -27 -13 0 8 3 12 5 9 3 -3 11 4 19 15 8 11 22 20
31 19 14 0 13 -2 -3 -9z m14 -60 c-6 -5 -18 -6 -26 -3 -19 8 -16 11 13 11 17
0 22 -3 13 -8z m21 -15 c-7 -9 -15 -13 -17 -11 -6 6 20 36 26 30 2 -2 -2 -10
-9 -19z m-30 -25 c7 -14 7 -20 0 -20 -5 0 -10 8 -10 17 0 16 -1 15 -13 -1 -16
-22 -42 -12 -44 17 l-1 22 10 -22 c13 -27 23 -29 32 -8 3 9 0 15 -9 15 -8 0
-15 5 -15 10 0 16 38 -7 50 -30z m-59 -35 c5 4 6 -1 2 -10 -5 -13 -7 -14 -14
-3 -5 7 -8 18 -8 23 0 6 3 4 6 -3 2 -6 9 -10 14 -7z m87 -13 c2 -6 -1 -12 -8
-12 -6 0 -8 5 -5 10 3 6 1 10 -5 10 -6 0 -13 -7 -16 -15 -4 -8 -11 -15 -16
-15 -6 0 -5 6 2 15 15 18 0 20 -20 3 -12 -11 -12 -10 -1 4 14 19 62 19 69 0z
m-105 -47 c-5 -17 -4 -18 11 -6 10 9 16 10 16 2 0 -6 -5 -11 -11 -11 -5 0 -7
-5 -3 -12 4 -7 3 -8 -4 -4 -7 4 -17 16 -23 28 -8 16 -8 19 1 13 9 -5 10 -1 5
16 -5 18 -4 21 4 9 6 -8 8 -24 4 -35z m42 14 c11 -16 1 -19 -13 -3 -7 8 -8 14
-3 14 5 0 13 -5 16 -11z m51 -5 c-3 -9 -6 -18 -6 -20 0 -2 -5 -4 -12 -4 -6 0
-20 -7 -30 -17 -10 -9 -18 -12 -18 -7 0 5 14 18 30 28 17 9 28 22 25 27 -4 5
-1 9 5 9 7 0 9 -7 6 -16z m-110 -36 c4 -7 3 -8 -4 -4 -7 4 -12 2 -12 -5 0 -7
-3 -10 -6 -6 -6 5 3 27 11 27 2 0 7 -5 11 -12z m42 -35 c2 -7 -1 -13 -8 -13
-6 0 -8 5 -5 10 8 14 -28 13 -42 -1 -8 -8 -13 -7 -18 2 -5 7 -4 10 3 5 6 -3
14 -1 17 4 9 14 47 9 53 -7z m-58 -43 c7 -4 1 -7 -16 -7 -16 0 -24 2 -17 4 7
2 9 12 6 21 -4 13 -3 14 5 3 5 -7 15 -17 22 -21z m-40 -40 c0 -11 -4 -20 -9
-20 -5 0 -7 9 -4 20 3 11 7 20 9 20 2 0 4 -9 4 -20z m32 11 c-10 -6 -10 -10 2
-20 12 -10 15 -8 19 11 4 21 4 22 6 2 0 -12 -7 -28 -16 -35 -10 -7 -15 -10
-11 -5 4 5 0 15 -8 23 -15 16 -11 33 9 33 8 0 8 -3 -1 -9z m58 -21 c-11 -11
-17 -26 -14 -34 6 -16 -11 -30 -26 -21 -6 4 -3 16 10 32 11 14 18 28 16 32 -3
4 4 7 14 8 18 2 18 1 0 -17z m-105 -28 c-3 -3 -11 0 -18 7 -9 10 -8 11 6 5 10
-3 15 -9 12 -12z m38 -6 c4 -10 1 -13 -9 -9 -15 6 -19 23 -5 23 5 0 11 -7 14
-14z m-51 -23 c-6 -3 -10 -9 -6 -14 3 -5 1 -9 -4 -9 -6 0 -13 7 -16 16 -3 8
-2 12 3 9 5 -3 13 0 16 6 4 5 10 7 14 3 3 -4 0 -9 -7 -11z m40 -7 c6 4 5 -2
-1 -15 -7 -11 -16 -21 -21 -21 -5 0 -8 -6 -6 -12 1 -7 1 -10 -1 -5 -3 4 -9 4
-15 1 -5 -3 -4 3 3 14 7 12 17 18 22 15 5 -3 6 5 3 18 -3 13 -3 18 0 11 3 -6
10 -9 16 -6z m19 -19 c-10 -9 -11 -8 -5 6 3 10 9 15 12 12 3 -3 0 -11 -7 -18z
m-77 -16 c-2 -3 -12 3 -22 13 -16 17 -16 18 5 5 12 -7 20 -15 17 -18z m-23 -8
c10 -11 10 -14 2 -9 -8 4 -13 2 -13 -6 0 -10 -3 -9 -9 2 -6 8 -7 18 -5 22 7
11 10 10 25 -9z m-40 -26 c-12 -16 -5 -27 18 -27 14 0 14 2 1 10 -8 5 -10 10
-5 10 6 0 16 -4 24 -9 11 -7 9 -10 -9 -16 -12 -4 -27 -2 -32 3 -6 6 -18 8 -27
5 -9 -4 -5 3 9 15 29 25 37 28 21 9z m131 3 c2 -6 13 -12 25 -13 12 0 20 -4
17 -8 -2 -4 3 -9 11 -13 8 -3 19 3 24 12 6 9 11 12 11 6 0 -14 -25 -36 -33
-28 -3 3 -10 -4 -17 -15 -6 -12 -8 -21 -4 -21 3 0 1 -6 -5 -13 -6 -8 -7 -18
-3 -22 4 -5 1 -5 -5 -1 -21 12 -36 -3 -22 -20 8 -10 8 -14 1 -12 -6 2 -17 -6
-25 -17 -14 -18 -15 -18 -12 9 2 18 -4 35 -18 49 -15 15 -16 19 -4 14 10 -4
20 0 26 10 7 14 9 14 15 -5 5 -14 12 -19 22 -15 9 3 12 9 7 12 -15 11 -38 45
-25 37 7 -4 12 -2 12 6 0 10 3 9 9 -2 6 -8 7 -19 4 -25 -4 -5 -2 -6 3 -2 12
11 13 57 1 57 -4 0 -17 -4 -27 -10 -23 -12 -59 -2 -38 11 7 5 22 6 33 2 17 -5
18 -4 6 11 -8 9 -9 16 -3 16 6 0 12 -5 14 -10z m-59 -7 c-7 -2 -19 -2 -25 0
-7 3 -2 5 12 5 14 0 19 -2 13 -5z m-110 -48 c-3 -9 -8 -14 -10 -11 -3 3 -2 9
2 15 9 16 15 13 8 -4z m18 -12 c-12 -20 -14 -14 -5 12 4 9 9 14 11 11 3 -2 0
-13 -6 -23z m89 17 c0 -5 -4 -10 -10 -10 -5 0 -10 5 -10 10 0 6 5 10 10 10 6
0 10 -4 10 -10z m-36 -11 c-2 -4 2 -9 8 -12 7 -2 11 -7 8 -10 -3 -3 -16 2 -28
12 -21 16 -22 17 -3 17 11 0 18 -3 15 -7z m56 -4 c0 -8 -4 -15 -10 -15 -5 0
-7 7 -4 15 4 8 8 15 10 15 2 0 4 -7 4 -15z m-132 -37 c-7 -4 -17 -8 -23 -8 -5
0 -3 5 5 10 13 8 12 10 -2 10 -10 0 -18 4 -18 10 0 6 10 5 25 -2 19 -8 22 -14
13 -20z m70 6 c2 -1 -4 -4 -13 -8 -9 -3 -13 -2 -10 4 3 6 1 10 -4 10 -6 0 -11
5 -11 11 0 8 6 7 18 -2 9 -7 18 -14 20 -15z m-144 -15 c-4 -7 0 -9 14 -5 26 9
37 -8 17 -28 -9 -9 -11 -17 -5 -21 13 -8 13 -25 0 -25 -5 0 -9 5 -7 11 1 6 -4
14 -12 17 -9 3 -11 0 -6 -8 5 -8 4 -11 -3 -6 -6 3 -13 2 -17 -4 -3 -5 -11 -10
-18 -10 -6 0 8 14 31 31 43 32 54 46 26 35 -19 -7 -37 2 -29 15 4 5 8 9 11 9
3 0 2 -5 -2 -11z m106 1 c0 -5 -8 -10 -17 -10 -15 -1 -14 -4 6 -20 13 -11 19
-20 13 -20 -6 0 -17 7 -25 15 -8 8 -16 13 -19 12 -2 -1 5 6 15 16 22 20 27 21
27 7z m-120 -30 c0 -5 -7 -10 -16 -10 -9 0 -12 -5 -8 -12 5 -7 3 -8 -6 -3 -10
6 -9 11 5 22 22 16 25 16 25 3z m-1310 -15 c0 -2 -6 -5 -13 -8 -8 -3 -14 1
-14 8 0 7 6 11 14 8 7 -3 13 -6 13 -8z m1390 -5 c0 -5 -4 -10 -10 -10 -5 0
-10 5 -10 10 0 6 5 10 10 10 6 0 10 -4 10 -10z m-1385 -20 c-3 -5 -11 -10 -16
-10 -6 0 -7 5 -4 10 3 6 11 10 16 10 6 0 7 -4 4 -10z m43 -26 c-4 -3 -12 5
-18 18 -12 22 -12 22 6 6 10 -10 15 -20 12 -24z m1220 4 c4 2 8 -3 10 -10 3
-17 -37 -82 -46 -74 -3 4 0 12 8 17 11 8 12 12 3 16 -7 2 -13 9 -13 15 0 6 7
4 17 -3 15 -12 16 -12 10 4 -4 11 -3 16 3 12 6 -3 10 1 10 10 0 9 -4 14 -9 10
-6 -3 -15 5 -21 17 -11 22 -11 22 5 3 9 -11 19 -19 23 -17z m152 22 c0 -5 -4
-10 -10 -10 -5 0 -10 5 -10 10 0 6 5 10 10 10 6 0 10 -4 10 -10z m-1366 -41
c8 7 17 6 26 0 13 -9 13 -10 0 -6 -8 2 -23 -2 -32 -11 -13 -11 -21 -12 -31 -3
-8 6 -18 7 -22 3 -5 -4 -5 -2 -2 5 4 6 1 14 -5 16 -8 4 -9 6 -2 6 6 1 17 -6
24 -14 7 -8 17 -15 23 -15 5 0 3 8 -6 18 -10 10 -17 23 -17 28 0 4 7 -2 16
-14 11 -16 19 -20 28 -13z m1170 19 c-3 -4 0 -8 7 -8 7 0 10 -2 7 -5 -7 -7
-38 5 -38 14 0 4 7 8 15 8 8 0 12 -4 9 -9z m-1104 -18 c0 -5 -5 -10 -11 -10
-5 0 -7 5 -4 10 3 6 8 10 11 10 2 0 4 -4 4 -10z m1073 -16 c-10 -7 -22 -13
-28 -13 -5 0 -2 4 8 10 9 6 15 14 12 20 -3 5 1 6 10 3 14 -6 14 -8 -2 -20z
m-45 -9 c0 -14 -5 -25 -10 -25 -5 0 -6 5 -3 10 3 6 1 10 -5 10 -7 0 -6 5 2 15
7 8 14 14 14 15 1 0 2 -11 2 -25z m177 5 c8 -13 -5 -13 -25 0 -13 8 -13 10 2
10 9 0 20 -4 23 -10z m-108 -32 c-3 -7 -5 -2 -5 12 0 14 2 19 5 13 2 -7 2 -19
0 -25z m-1197 12 c8 -5 11 -10 5 -10 -5 0 -17 5 -25 10 -8 5 -10 10 -5 10 6 0
17 -5 25 -10z m-15 -19 c3 -5 2 -12 -3 -15 -5 -3 -9 1 -9 9 0 17 3 19 12 6z
m65 -1 c8 -5 11 -10 5 -10 -5 0 -17 5 -25 10 -8 5 -10 10 -5 10 6 0 17 -5 25
-10z m980 0 c0 -5 -2 -10 -4 -10 -3 0 -8 5 -11 10 -3 6 -1 10 4 10 6 0 11 -4
11 -10z m52 -3 c-12 -7 -20 -15 -18 -18 3 -3 -4 -11 -16 -18 -11 -7 -17 -8
-14 -3 3 6 1 13 -4 15 -6 3 -5 4 2 3 6 -1 20 6 30 16 10 10 24 18 31 18 6 -1
2 -6 -11 -13z m-1076 -28 c-2 -19 1 -32 10 -36 8 -3 14 -10 14 -15 0 -7 -5 -6
-13 1 -8 6 -17 9 -20 6 -4 -3 -5 -2 -2 2 3 3 -1 13 -8 21 -10 13 -9 14 1 8 9
-5 13 -3 11 5 -2 20 0 39 6 39 2 0 3 -14 1 -31z m1000 14 c-3 -3 1 -15 9 -27
8 -11 15 -25 15 -31 -1 -12 -33 44 -36 63 -1 6 2 9 8 6 5 -3 7 -8 4 -11z m384
13 c0 -2 -6 -9 -14 -15 -11 -9 -16 -9 -22 0 -4 7 -3 9 4 5 6 -3 13 -2 17 4 6
10 15 14 15 6z m-1340 -29 c11 -5 9 -6 -4 -4 -11 1 -21 9 -23 17 -3 10 -2 11
4 4 4 -6 15 -14 23 -17z m895 4 c-3 -6 -15 -11 -26 -11 -11 0 -18 -4 -14 -9 9
-15 -13 -23 -32 -11 -15 9 -14 10 7 5 23 -5 23 -5 8 8 -16 13 -15 14 14 15 18
0 34 6 36 12 2 6 6 9 9 6 3 -2 2 -9 -2 -15z m147 -3 c-8 -8 -7 -15 6 -24 19
-15 5 -19 -16 -5 -12 7 -12 12 -1 29 7 12 15 19 18 16 3 -2 -1 -10 -7 -16z
m-666 -20 c3 -10 10 -18 15 -18 13 0 11 13 -3 30 -11 12 -10 12 3 2 9 -6 19
-8 24 -4 4 4 2 -3 -4 -15 -8 -16 -8 -23 -1 -23 6 0 13 7 16 15 4 8 10 15 16
15 5 0 7 -4 4 -9 -4 -5 -3 -11 1 -14 5 -2 3 -2 -4 -1 -7 2 -15 -1 -18 -6 -4
-6 -1 -10 5 -10 7 0 10 -6 7 -13 -3 -8 3 -13 18 -13 13 0 21 4 19 8 -3 5 -10
6 -15 3 -5 -4 -9 -1 -9 4 0 6 7 11 15 11 17 0 19 12 5 26 -7 7 -6 11 4 11 8 0
13 -4 10 -9 -3 -4 0 -8 5 -8 6 0 11 5 11 12 0 6 3 8 7 5 3 -4 -2 -16 -11 -26
-10 -11 -15 -24 -12 -29 3 -5 -1 -15 -8 -21 -10 -9 -16 -9 -21 -1 -5 8 -11 8
-21 -1 -13 -11 -18 -6 -15 14 1 8 -43 2 -60 -9 -8 -4 -9 -3 -5 4 4 7 3 12 -3
12 -12 0 -8 27 7 42 8 8 7 14 -5 23 -14 11 -14 12 1 12 8 0 18 -9 22 -19z
m574 -9 c7 -13 7 -19 0 -19 -5 0 -10 7 -10 15 0 8 -4 15 -10 15 -5 0 -10 5
-10 11 0 14 18 2 30 -22z m134 15 c8 -21 8 -24 -5 -24 -5 0 -7 5 -4 10 3 6 1
10 -4 10 -6 0 -11 5 -11 10 0 16 17 12 24 -6z m-329 -15 c-6 -32 -12 -34 -12
-4 0 14 3 25 8 25 4 0 6 -10 4 -21z m-752 -7 c-3 -7 -9 -10 -12 -5 -3 4 -10
11 -15 15 -4 4 1 6 12 5 12 -1 18 -6 15 -15z m242 8 c3 -5 -1 -10 -10 -10 -9
0 -13 5 -10 10 3 6 8 10 10 10 2 0 7 -4 10 -10z m319 -2 c-3 -4 -9 -8 -15 -8
-5 0 -9 4 -9 8 0 5 7 9 15 9 8 0 12 -4 9 -9z m33 -10 c-3 -8 -6 -5 -6 6 -1 11
2 17 5 13 3 -3 4 -12 1 -19z m57 10 c-3 -4 -9 -8 -15 -8 -5 0 -9 4 -9 8 0 5 7
9 15 9 8 0 12 -4 9 -9z m171 -16 c15 -8 16 -11 5 -12 -18 0 -40 19 -40 35 0 7
3 6 8 -1 4 -6 16 -16 27 -22z m189 13 c3 -8 1 -15 -4 -15 -6 0 -10 7 -10 15 0
8 2 15 4 15 2 0 6 -7 10 -15z m182 -19 c4 -26 -9 -36 -22 -14 -5 7 -3 8 6 3 9
-6 11 -4 5 5 -6 10 -11 9 -22 -5 -7 -11 -20 -20 -29 -21 -9 -2 -2 11 18 30 18
19 34 32 36 31 2 -1 5 -14 8 -29z m64 25 c0 -5 -7 -11 -14 -14 -10 -4 -13 -1
-9 9 6 15 23 19 23 5z m-623 -27 c-3 -3 -12 -4 -19 -1 -8 3 -5 6 6 6 11 1 17
-2 13 -5z m-673 -12 c3 -5 -1 -9 -9 -9 -8 0 -15 4 -15 9 0 4 4 8 9 8 6 0 12
-4 15 -8z m28 -14 c-7 -7 -12 -8 -12 -2 0 14 12 26 19 19 2 -3 -1 -11 -7 -17z
m978 12 c0 -5 -2 -10 -4 -10 -3 0 -8 5 -11 10 -3 6 -1 10 4 10 6 0 11 -4 11
-10z m90 -39 c0 -13 -28 -22 -35 -11 -3 4 1 11 7 13 20 8 28 8 28 -2z m-178
-25 c10 6 9 3 -1 -9 -10 -13 -17 -15 -27 -6 -8 6 -14 16 -14 21 0 6 6 5 15 -2
8 -6 20 -8 27 -4z m-882 -17 c0 -6 -4 -7 -10 -4 -5 3 -10 11 -10 16 0 6 5 7
10 4 6 -3 10 -11 10 -16z m744 10 c3 -3 -4 -5 -14 -6 -11 -1 -22 2 -25 8 -6 9
30 7 39 -2z m-764 -31 c0 -19 -16 -5 -17 14 -2 18 0 20 7 8 5 -8 10 -18 10
-22z m60 8 c0 -2 -7 -6 -15 -10 -8 -3 -15 -1 -15 4 0 6 7 10 15 10 8 0 15 -2
15 -4z m-59 -39 l-24 -22 19 27 c10 14 21 24 23 22 3 -3 -6 -15 -18 -27z m17
-52 c0 -13 -5 -22 -10 -19 -5 3 -6 15 -2 26 4 15 3 18 -6 13 -9 -5 -11 -4 -6
4 11 17 24 5 24 -24z m91 28 c-1 -5 0 -10 1 -13 1 -3 3 -14 4 -26 2 -18 -3
-21 -33 -19 -20 1 -40 -3 -44 -9 -5 -7 -7 -5 -4 4 2 8 10 14 16 13 6 -2 11 2
11 7 0 6 9 19 20 30 21 21 31 25 29 13z m-949 -353 c0 -5 -2 -10 -4 -10 -3 0
-8 5 -11 10 -3 6 -1 10 4 10 6 0 11 -4 11 -10z m30 -11 c0 -5 -4 -9 -8 -9 -5
0 -9 7 -9 15 0 8 4 12 9 9 4 -3 8 -9 8 -15z m73 -6 c-3 -7 -6 -13 -8 -13 -2 0
-5 6 -8 13 -3 8 1 14 8 14 7 0 11 -6 8 -14z m54 2 c4 -4 3 -5 -4 -2 -6 4 -13
2 -15 -5 -3 -8 -6 -6 -10 4 -7 17 15 19 29 3z m-322 -7 c5 4 5 1 1 -6 -6 -10
-11 -10 -22 -1 -8 6 -14 14 -14 16 0 3 6 0 13 -6 8 -6 18 -7 22 -3z m174 -36
c-5 -2 -6 -9 -2 -15 3 -7 2 -9 -2 -5 -5 5 -10 20 -11 34 -3 25 -2 25 11 8 7
-11 9 -21 4 -22z m115 22 c3 -8 2 -12 -4 -9 -6 3 -10 10 -10 16 0 14 7 11 14
-7z m251 -2 c-3 -3 -11 0 -18 7 -9 10 -8 11 6 5 10 -3 15 -9 12 -12z m80 -2
c4 -6 11 -8 16 -5 5 4 9 1 9 -4 0 -15 -11 -13 -34 4 -11 8 -15 15 -9 15 7 0
15 -5 18 -10z m-30 -6 c13 -5 14 -8 3 -15 -7 -5 -17 -9 -23 -9 -5 0 -3 5 5 10
13 8 12 10 -2 10 -10 0 -18 -5 -18 -12 0 -6 -3 -9 -6 -5 -7 7 4 27 16 27 4 0
16 -3 25 -6z m140 -12 c-3 -3 -11 0 -18 7 -9 10 -8 11 6 5 10 -3 15 -9 12 -12z
m51 -10 c-10 -2 -22 0 -28 6 -6 6 0 7 19 4 21 -5 23 -7 9 -10z m-36 -12 c0 -5
-2 -10 -4 -10 -3 0 -8 5 -11 10 -3 6 -1 10 4 10 6 0 11 -4 11 -10z m200 -5 c0
-8 -4 -15 -10 -15 -5 0 -7 7 -4 15 4 8 8 15 10 15 2 0 4 -7 4 -15z m100 11 c0
-3 -4 -8 -10 -11 -5 -3 -10 -1 -10 4 0 6 5 11 10 11 6 0 10 -2 10 -4z m-466
-22 c4 -9 4 -19 1 -22 -3 -3 -5 1 -5 8 0 9 -4 8 -13 -4 -12 -16 -14 -16 -14
-2 0 9 4 16 9 16 5 0 6 5 3 10 -3 6 -2 10 3 10 6 0 13 -7 16 -16z m516 2 c-7
-7 -14 -6 -21 1 -9 9 -7 12 9 10 14 -1 18 -5 12 -11z m56 -5 c2 -7 1 -8 -3 -1
-3 7 -14 3 -28 -10 -18 -17 -25 -19 -31 -8 -4 7 -4 10 0 6 9 -8 36 14 30 24
-2 3 4 5 13 4 9 -2 18 -8 19 -15z m419 3 c19 -14 19 -14 -5 -10 -14 2 -28 5
-32 5 -5 1 -8 6 -8 11 0 14 22 12 45 -6z m-1061 -39 c3 -8 1 -15 -3 -15 -5 0
-11 7 -15 15 -3 8 -1 15 3 15 5 0 11 -7 15 -15z m139 0 c9 2 15 0 12 -5 -3 -5
-13 -7 -23 -5 -9 2 -20 4 -24 4 -5 1 -8 6 -8 12 0 8 4 8 13 2 6 -6 20 -9 30
-8z m992 -45 c0 -5 9 -16 20 -24 11 -9 15 -16 8 -16 -6 0 -15 5 -18 10 -4 6
-14 1 -24 -11 -11 -14 -20 -18 -24 -12 -4 6 2 22 13 35 11 14 17 28 15 32 -3
3 -2 3 3 0 4 -3 7 -10 7 -14z"/>
<path d="M2020 7769 c0 -5 5 -7 10 -4 6 3 10 8 10 11 0 2 -4 4 -10 4 -5 0 -10
-5 -10 -11z"/>
<path d="M1885 6990 c-3 -5 -1 -10 4 -10 6 0 11 5 11 10 0 6 -2 10 -4 10 -3 0
-8 -4 -11 -10z"/>
<path d="M2255 6120 c-4 -6 -15 -8 -25 -5 -13 4 -17 1 -16 -12 0 -10 -3 -17
-9 -16 -5 0 -16 -5 -23 -13 -7 -8 -10 -14 -6 -14 4 0 -1 -10 -12 -22 l-20 -23
23 -22 c22 -21 28 -17 24 15 -1 8 5 19 13 25 9 7 17 22 19 34 2 12 14 31 28
42 13 11 21 20 17 21 -4 0 -10 -5 -13 -10z m-46 -74 c-2 -2 -15 -9 -29 -15
-24 -11 -24 -11 -6 3 16 13 49 24 35 12z"/>
<path d="M2045 6030 c-3 -5 -1 -10 4 -10 6 0 11 5 11 10 0 6 -2 10 -4 10 -3 0
-8 -4 -11 -10z"/>
<path d="M2020 5870 c0 -5 5 -10 11 -10 5 0 7 5 4 10 -3 6 -8 10 -11 10 -2 0
-4 -4 -4 -10z"/>
<path d="M1141 5827 c-1 -5 8 -20 19 -34 13 -17 18 -34 14 -47 -6 -21 -6 -21
10 -1 11 14 14 15 10 4 -3 -10 1 -19 11 -23 11 -4 14 -2 8 7 -4 6 -8 21 -9 32
-2 43 -4 47 -20 41 -8 -3 -12 -2 -9 3 3 5 0 13 -6 17 -8 4 -9 3 -5 -4 4 -7 3
-12 -3 -12 -5 0 -12 6 -14 13 -3 6 -6 8 -6 4z m59 -41 c0 -3 -4 -8 -10 -11 -5
-3 -10 -1 -10 4 0 6 5 11 10 11 6 0 10 -2 10 -4z"/>
<path d="M1244 5768 c3 -10 1 -20 -4 -23 -6 -4 -10 -12 -10 -18 0 -7 7 -4 14
6 11 14 15 15 19 5 3 -7 6 -8 6 -2 1 5 -6 19 -15 30 -13 16 -15 16 -10 2z"/>
<path d="M1295 5760 c-12 -14 -15 -24 -9 -30 14 -14 46 21 35 38 -6 9 -12 7
-26 -8z m15 -15 c-7 -9 -15 -13 -19 -10 -3 3 1 10 9 15 21 14 24 12 10 -5z"/>
<path d="M1545 5781 c-3 -5 -1 -12 5 -16 5 -3 10 1 10 9 0 18 -6 21 -15 7z"/>
<path d="M1648 5758 c-13 -13 -22 -22 -19 -20 2 1 14 -4 26 -12 19 -12 21 -12
22 5 1 10 -3 19 -8 19 -6 0 -7 -5 -3 -12 5 -7 3 -8 -6 -3 -10 6 -9 11 5 21 10
8 16 16 13 19 -3 3 -17 -4 -30 -17z"/>
<path d="M1543 5737 c0 -8 6 -14 13 -14 7 0 10 6 7 14 -3 7 -8 13 -12 13 -4 0
-8 -6 -8 -13z"/>
<path d="M1833 5705 c0 -8 4 -12 9 -9 5 3 6 10 3 15 -9 13 -12 11 -12 -6z"/>
<path d="M8705 3860 c-3 -6 1 -7 9 -4 18 7 21 14 7 14 -6 0 -13 -4 -16 -10z"/>
<path d="M8660 3910 c0 -5 5 -10 11 -10 5 0 7 5 4 10 -3 6 -8 10 -11 10 -2 0
-4 -4 -4 -10z"/>
<path d="M8666 3818 c3 -5 10 -6 15 -3 13 9 11 12 -6 12 -8 0 -12 -4 -9 -9z"/>
<path d="M8671 3647 c-8 -10 -7 -14 2 -14 8 0 14 6 14 14 0 7 -1 13 -2 13 -2
0 -8 -6 -14 -13z"/>
<path d="M8605 3870 c-3 -5 -1 -10 4 -10 6 0 11 5 11 10 0 6 -2 10 -4 10 -3 0
-8 -4 -11 -10z"/>
<path d="M10177 3773 c-4 -3 -2 -12 4 -19 7 -9 7 -19 0 -33 -12 -21 3 -71 21
-71 18 0 16 62 -4 91 -9 14 -15 29 -11 33 3 3 4 6 1 6 -2 0 -8 -3 -11 -7z m28
-81 c-3 -3 -11 0 -18 7 -9 10 -8 11 6 5 10 -3 15 -9 12 -12z"/>
<path d="M10225 3620 c-3 -6 1 -7 9 -4 18 7 21 14 7 14 -6 0 -13 -4 -16 -10z"/>
<path d="M10241 3581 c-8 -14 -6 -22 8 -35 11 -10 22 -13 25 -8 3 5 -1 15 -10
22 -8 7 -13 19 -10 27 8 20 -2 16 -13 -6z m20 -28 c13 -16 12 -17 -3 -4 -10 7
-18 15 -18 17 0 8 8 3 21 -13z"/>
<path d="M10266 3493 c2 -7 -6 -15 -17 -18 -21 -7 -25 -20 -9 -30 6 -3 10 -1
10 6 0 8 5 7 18 -2 15 -13 16 -12 3 3 -11 15 -11 19 3 24 9 3 16 14 16 23 0
13 -2 13 -9 2 -5 -7 -11 -9 -13 -5 -3 5 -3 4 -2 -3z"/>
<path d="M8520 3489 c0 -5 5 -7 10 -4 6 3 10 8 10 11 0 2 -4 4 -10 4 -5 0 -10
-5 -10 -11z"/>
<path d="M10105 2810 c-3 -5 -1 -10 4 -10 6 0 11 5 11 10 0 6 -2 10 -4 10 -3
0 -8 -4 -11 -10z"/>
<path d="M10035 2621 c-3 -6 -2 -11 4 -11 5 0 8 -9 6 -20 -2 -11 0 -18 5 -15
5 3 7 15 5 27 -5 26 -11 32 -20 19z"/>
<path d="M8926 2362 c-9 -15 9 -27 42 -28 17 0 32 1 32 3 0 3 -57 33 -64 33
-3 0 -7 -4 -10 -8z"/>
<path d="M8627 2155 c-8 -19 13 -31 23 -14 9 14 4 29 -10 29 -4 0 -10 -7 -13
-15z"/>
<path d="M9160 1620 c-6 -11 -8 -20 -6 -20 3 0 10 9 16 20 6 11 8 20 6 20 -3
0 -10 -9 -16 -20z"/>
<path d="M2475 8300 c-3 -5 -1 -10 4 -10 6 0 11 5 11 10 0 6 -2 10 -4 10 -3 0
-8 -4 -11 -10z"/>
<path d="M2414 8292 c4 -7 5 -12 2 -12 -2 0 -12 -3 -22 -7 -13 -5 -15 -3 -9 7
5 8 4 11 -2 7 -10 -6 -10 -78 1 -95 4 -6 13 -9 20 -6 7 3 16 -2 19 -10 4 -9
12 -16 18 -16 8 0 8 4 1 13 -7 8 -6 18 4 31 7 10 11 23 8 27 -3 5 0 9 6 9 7 0
10 -7 6 -15 -6 -16 14 -16 26 0 5 6 8 4 8 -4 0 -11 3 -10 13 3 12 16 14 16 14
2 0 -9 -5 -16 -11 -16 -6 0 -4 -5 4 -10 13 -9 13 -10 0 -10 -12 0 -12 -2 -2
-9 8 -4 13 -11 13 -15 -1 -3 1 -6 4 -6 3 0 8 0 11 0 4 0 1 7 -6 15 -14 17 -10
18 23 6 17 -7 24 -6 24 4 0 7 -7 11 -14 8 -21 -8 -43 28 -31 50 5 10 7 21 4
25 -3 3 -6 0 -6 -6 0 -18 -28 -14 -39 6 -6 9 -11 12 -11 5 0 -6 5 -15 10 -18
6 -3 10 -11 10 -17 0 -7 -4 -7 -13 1 -8 6 -17 8 -20 4 -4 -3 -8 5 -8 18 -1 17
-3 19 -6 6 -2 -9 -8 -15 -13 -12 -5 3 -7 13 -4 23 5 14 4 14 -4 2 -6 -8 -8
-18 -5 -24 4 -5 -1 -7 -10 -3 -9 3 -19 2 -22 -3 -4 -6 -12 -10 -18 -10 -7 1 1
11 17 24 20 17 25 26 16 31 -9 5 -11 4 -6 -3z m1 -52 c-8 -14 8 -13 22 1 9 9
11 8 10 -2 -5 -32 -21 -39 -66 -30 -5 1 30 41 36 41 2 0 1 -4 -2 -10z"/>
<path d="M2510 8281 c0 -6 4 -13 10 -16 6 -3 7 1 4 9 -7 18 -14 21 -14 7z"/>
<path d="M2555 8239 c-11 -16 -1 -19 13 -3 7 8 8 14 3 14 -5 0 -13 -5 -16 -11z"/>
<path d="M2284 8218 c3 -10 1 -20 -4 -23 -17 -11 -11 -27 8 -20 9 4 24 8 32 9
23 4 18 31 -5 31 -11 -1 -24 4 -28 10 -5 6 -7 3 -3 -7z"/>
<path d="M2457 8199 c-17 -10 -15 -29 4 -29 6 0 7 5 4 10 -12 20 6 9 31 -17
25 -27 25 -27 16 -3 -5 14 -10 29 -10 33 -1 14 -12 22 -12 9 0 -7 -5 -12 -11
-12 -5 0 -7 5 -4 10 8 12 5 12 -18 -1z"/>
<path d="M2453 8158 c-13 -6 -24 -15 -24 -20 -1 -4 -3 -12 -4 -18 -1 -5 -3
-13 -4 -17 0 -4 -7 0 -13 8 -7 8 -12 12 -11 10 2 -2 -2 -10 -8 -17 -8 -9 -5
-16 12 -24 12 -7 19 -8 15 -2 -3 5 2 16 11 23 14 12 15 11 9 -9 -4 -12 -3 -22
2 -22 9 0 10 7 13 55 1 14 8 25 16 25 8 0 11 -5 7 -12 -4 -6 -3 -8 4 -4 6 3
13 2 17 -4 3 -5 16 -9 28 -9 20 1 21 2 2 6 -27 7 -46 23 -39 34 7 12 -5 10
-33 -3z"/>
<path d="M2331 8129 c-24 -30 -23 -41 4 -45 11 -2 12 2 6 15 -7 13 -5 20 10
29 10 7 19 17 19 22 0 18 -14 10 -39 -21z"/>
<path d="M2465 8110 c-3 -6 1 -7 9 -4 18 7 21 14 7 14 -6 0 -13 -4 -16 -10z"/>
<path d="M2958 8088 c-7 -17 15 -19 29 -3 4 4 3 5 -4 2 -6 -4 -13 -2 -15 5 -3
8 -6 6 -10 -4z"/>
<path d="M3002 8095 c4 -5 3 -14 -3 -21 -7 -8 -6 -14 2 -20 8 -4 9 -3 5 4 -4
7 -3 12 2 12 19 0 21 -15 6 -39 -13 -23 -12 -22 10 3 27 32 26 40 -7 57 -12 7
-19 8 -15 4z"/>
<path d="M773 8056 c0 -8 6 -12 14 -9 7 3 20 2 29 -1 13 -5 14 -9 4 -21 -8 -9
-8 -15 -2 -15 6 0 13 6 15 13 4 7 6 6 6 -5 1 -9 -4 -19 -9 -21 -6 -3 -5 -4 1
-3 7 1 16 13 21 26 5 13 6 21 2 17 -4 -4 -14 -1 -23 7 -25 22 -58 29 -58 12z"/>
<path d="M2250 8038 c0 -6 -3 -8 -7 -5 -3 4 -17 0 -31 -9 -14 -9 -21 -11 -17
-4 5 8 3 11 -6 8 -8 -3 -13 -12 -11 -20 1 -9 -5 -21 -13 -28 -8 -7 -15 -17
-15 -23 0 -6 3 -7 7 -4 3 4 12 2 20 -4 7 -6 13 -8 13 -4 0 4 9 -3 20 -16 10
-13 19 -18 20 -11 0 6 -4 12 -10 12 -5 0 -10 5 -10 11 0 6 7 9 15 6 8 -4 17
-1 21 5 4 6 3 8 -3 5 -6 -4 -13 0 -17 8 -3 8 -1 17 5 21 6 4 6 11 -2 20 -11
14 -10 15 13 18 11 1 25 26 14 26 -3 0 -6 -5 -6 -12z m-27 -51 c-4 -7 -8 -16
-8 -21 0 -11 -33 -17 -40 -7 -7 12 35 52 46 46 5 -4 6 -12 2 -18z"/>
<path d="M2197 7982 c-15 -16 -15 -19 -2 -19 8 0 13 3 10 5 -3 3 0 11 6 19 17
20 5 16 -14 -5z"/>
<path d="M2120 8029 c0 -5 5 -7 10 -4 6 3 10 8 10 11 0 2 -4 4 -10 4 -5 0 -10
-5 -10 -11z"/>
<path d="M2350 8029 c0 -5 5 -7 10 -4 6 3 10 8 10 11 0 2 -4 4 -10 4 -5 0 -10
-5 -10 -11z"/>
<path d="M3078 8023 c7 -3 16 -2 19 1 4 3 -2 6 -13 5 -11 0 -14 -3 -6 -6z"/>
<path d="M3025 7999 c-3 -4 2 -6 10 -5 21 3 28 13 10 13 -9 0 -18 -4 -20 -8z"/>
<path d="M2277 7981 c-4 -17 -3 -21 5 -13 5 5 8 16 6 23 -3 8 -7 3 -11 -10z"/>
<path d="M850 7965 c0 -5 5 -17 10 -25 5 -8 10 -10 10 -5 0 6 -5 17 -10 25 -5
8 -10 11 -10 5z"/>
<path d="M2266 7938 c3 -5 10 -6 15 -3 13 9 11 12 -6 12 -8 0 -12 -4 -9 -9z"/>
<path d="M2120 7875 c-10 -12 -10 -18 0 -30 9 -11 9 -15 1 -15 -7 0 -9 -4 -6
-10 10 -17 31 11 31 42 0 31 -8 35 -26 13z"/>
<path d="M2213 7865 c0 -8 4 -12 9 -9 5 3 6 10 3 15 -9 13 -12 11 -12 -6z"/>
<path d="M2214 7826 c1 -8 5 -18 8 -22 4 -3 5 1 4 10 -1 8 -5 18 -8 22 -4 3
-5 -1 -4 -10z"/>
<path d="M2195 7780 c-3 -5 -1 -10 4 -10 6 0 11 5 11 10 0 6 -2 10 -4 10 -3 0
-8 -4 -11 -10z"/>
<path d="M2110 7776 c0 -2 7 -7 16 -10 8 -3 12 -2 9 4 -6 10 -25 14 -25 6z"/>
<path d="M2190 7706 c0 -2 7 -7 16 -10 8 -3 12 -2 9 4 -6 10 -25 14 -25 6z"/>
<path d="M2715 7699 c-4 -6 -5 -12 -2 -15 2 -3 7 2 10 11 7 17 1 20 -8 4z"/>
<path d="M2718 7668 c-28 -35 -5 -45 32 -14 17 14 28 26 24 26 -4 0 -16 -7
-26 -17 -20 -18 -25 -4 -6 15 7 7 8 12 3 12 -6 0 -18 -10 -27 -22z"/>
<path d="M2086 7608 c-19 -27 -20 -38 -4 -38 6 0 8 3 5 7 -4 3 0 17 8 30 20
29 11 30 -9 1z"/>
<path d="M2154 7566 c1 -8 5 -18 8 -22 4 -3 5 1 4 10 -1 8 -5 18 -8 22 -4 3
-5 -1 -4 -10z"/>
<path d="M2875 7549 c-4 -6 -5 -12 -2 -15 2 -3 7 2 10 11 7 17 1 20 -8 4z"/>
<path d="M2099 7545 c-1 -6 -2 -16 -3 -24 0 -8 -9 -15 -19 -17 -11 -1 -22 -6
-25 -10 -4 -4 0 -5 10 -1 11 4 15 1 13 -11 -1 -9 3 -20 9 -24 6 -4 1 -6 -11
-5 -17 1 -19 4 -11 14 13 16 -4 17 -19 2 -9 -9 -5 -18 14 -38 17 -17 27 -22
30 -14 3 10 10 10 26 2 21 -10 21 -10 2 6 -22 18 -32 70 -14 80 8 5 9 1 5 -13
-4 -11 -2 -23 4 -27 6 -3 7 -12 4 -18 -4 -8 -2 -7 7 1 12 11 12 14 0 21 -10 7
-11 13 -1 31 10 18 9 25 -4 38 -9 9 -17 12 -17 7z m19 -30 c-3 -3 -9 2 -12 12
-6 14 -5 15 5 6 7 -7 10 -15 7 -18z m-28 -81 c0 -8 -19 -13 -24 -6 -3 5 1 9 9
9 8 0 15 -2 15 -3z"/>
<path d="M2826 7532 c-3 -4 4 -9 15 -9 23 -2 25 3 4 10 -8 4 -16 3 -19 -1z"/>
<path d="M2175 7520 c-3 -5 -1 -10 4 -10 6 0 11 5 11 10 0 6 -2 10 -4 10 -3 0
-8 -4 -11 -10z"/>
<path d="M2824 7502 c3 -3 0 -12 -7 -21 -10 -14 -10 -14 4 -3 22 16 50 6 42
-16 -7 -18 -5 -17 17 11 7 10 9 17 4 16 -5 -1 -16 -1 -24 0 -12 1 -13 3 -1 10
9 6 5 9 -13 9 -15 0 -24 -3 -22 -6z"/>
<path d="M2135 7480 c3 -5 8 -10 11 -10 2 0 4 5 4 10 0 6 -5 10 -11 10 -5 0
-7 -4 -4 -10z"/>
<path d="M2135 7440 c-3 -5 -1 -10 4 -10 6 0 11 5 11 10 0 6 -2 10 -4 10 -3 0
-8 -4 -11 -10z"/>
<path d="M2071 7391 c-11 -11 -22 -17 -25 -15 -3 2 -4 1 -2 -2 3 -3 0 -17 -5
-31 -7 -20 -6 -30 6 -43 14 -16 13 -19 -11 -35 l-27 -18 23 -12 c20 -11 28
-10 47 2 13 9 23 20 23 27 0 6 -4 4 -10 -4 -5 -8 -12 -11 -16 -7 -8 8 15 39
25 32 4 -2 7 6 6 18 -1 12 -8 22 -16 23 -33 2 -37 5 -35 19 1 8 6 18 11 22 4
4 6 3 2 -2 -11 -21 7 -34 26 -20 18 13 17 14 -2 20 -12 3 -21 11 -21 16 0 13
7 11 38 -7 15 -9 20 -10 11 -3 -9 8 -14 20 -12 27 7 18 -15 14 -36 -7z m22
-86 c-4 -5 -12 -17 -20 -26 -8 -9 -13 -21 -11 -27 2 -5 0 -10 -4 -11 -25 -3
-27 1 -8 21 17 19 18 23 5 38 -13 14 -11 16 14 15 17 0 27 -4 24 -10z"/>
<path d="M2855 7384 c-16 -17 -17 -35 0 -35 5 0 11 5 14 12 2 7 -1 9 -8 5 -17
-11 -13 0 6 15 14 12 16 12 8 0 -5 -9 -4 -12 2 -8 5 3 10 0 10 -8 0 -8 -4 -15
-9 -15 -5 0 -6 -5 -3 -10 4 -6 3 -10 -2 -9 -24 4 -25 -3 -3 -18 25 -18 29 -19
51 -22 8 -1 8 -6 -1 -16 -7 -9 -10 -18 -6 -22 3 -3 -2 -15 -11 -26 -17 -20
-17 -20 1 -14 23 9 53 -12 34 -24 -7 -4 -9 -12 -4 -16 8 -7 19 9 16 23 -1 3 7
12 17 20 17 13 17 14 -2 8 l-20 -6 20 17 c19 16 19 16 1 13 -10 -2 -21 3 -23
10 -3 8 1 10 14 6 10 -4 3 5 -16 20 -23 17 -29 26 -19 26 9 0 20 5 24 11 4 7
0 9 -13 5 -14 -4 -19 -1 -20 14 -1 11 2 18 8 15 5 -4 9 -1 9 5 0 7 -8 9 -22 4
-21 -6 -22 -5 -8 11 9 11 10 16 3 11 -7 -4 -13 -2 -13 3 0 16 -16 13 -35 -5z
m51 -59 c-2 -14 -16 -22 -16 -10 0 3 0 12 0 21 0 8 4 13 9 10 5 -4 8 -13 7
-21z m29 -55 c-3 -5 -3 -16 2 -22 14 -23 13 -40 -1 -28 -7 5 -12 20 -11 33 3
26 3 27 11 27 3 0 2 -4 -1 -10z"/>
<path d="M2115 7341 c-3 -5 -2 -12 3 -15 5 -3 9 1 9 9 0 17 -3 19 -12 6z"/>
<path d="M2960 7315 c-7 -9 -11 -17 -9 -20 3 -2 10 5 17 15 14 24 10 26 -8 5z"/>
<path d="M2002 7191 l-24 -6 21 -19 c20 -18 22 -18 41 -1 29 26 11 38 -38 26z
m37 -18 c-6 -7 -15 -10 -20 -7 -13 8 -3 21 15 21 12 0 13 -4 5 -14z"/>
<path d="M2316 6404 c-17 -16 -13 -34 6 -34 6 0 8 3 5 7 -4 3 0 15 10 25 20
22 1 24 -21 2z"/>
<path d="M2333 6372 c-1 -11 6 -18 17 -19 17 -2 18 1 7 18 -15 24 -22 24 -24
1z"/>
<path d="M2300 6261 c0 -22 -1 -26 -13 -46 -16 -25 -15 -51 2 -47 7 1 19 -2
25 -7 9 -8 13 -7 13 4 0 8 -3 12 -7 10 -3 -2 -11 5 -18 16 -14 22 -10 23 21 8
20 -9 20 -9 5 4 -10 8 -15 17 -11 20 3 4 12 2 19 -4 9 -7 12 -6 10 7 -3 20
-46 53 -46 35z m36 -23 c4 -7 4 -10 -1 -6 -4 4 -13 3 -20 -2 -8 -7 -12 -5 -12
5 0 18 23 20 33 3z m-41 -47 c3 -5 2 -12 -3 -15 -5 -3 -9 1 -9 9 0 17 3 19 12
6z"/>
<path d="M2273 6035 c0 -8 4 -12 9 -9 5 3 6 10 3 15 -9 13 -12 11 -12 -6z"/>
<path d="M2248 5999 c-20 -11 -24 -29 -6 -29 6 0 8 3 5 7 -4 3 1 12 11 19 20
16 14 18 -10 3z"/>
<path d="M2152 5955 c5 -5 -4 -24 -18 -42 -14 -19 -24 -37 -21 -40 9 -8 27 7
27 23 0 8 5 13 12 12 15 -4 19 40 4 49 -6 3 -8 3 -4 -2z"/>
<path d="M2083 5842 c0 -10 5 -23 11 -31 8 -11 8 -13 -1 -7 -7 4 -13 3 -13 -2
0 -6 7 -13 15 -16 12 -4 15 2 13 29 -2 34 -24 58 -25 27z"/>
<path d="M2175 5839 c-4 -6 -5 -12 -2 -15 2 -3 7 2 10 11 7 17 1 20 -8 4z"/>
<path d="M2150 5799 c0 -5 5 -7 10 -4 6 3 10 8 10 11 0 2 -4 4 -10 4 -5 0 -10
-5 -10 -11z"/>
<path d="M1022 5780 c13 -20 28 -27 28 -12 0 4 -9 13 -20 20 -19 12 -20 11 -8
-8z"/>
<path d="M1451 5766 c-19 -20 -20 -24 -7 -29 9 -4 15 -3 15 1 -4 26 2 34 15
23 12 -10 13 -8 9 8 -7 26 -5 26 -32 -3z"/>
<path d="M1395 5740 c-3 -5 -1 -10 4 -10 6 0 11 5 11 10 0 6 -2 10 -4 10 -3 0
-8 -4 -11 -10z"/>
<path d="M2029 5743 c-1 -5 -1 -12 0 -17 3 -15 -22 -37 -36 -32 -8 3 -12 2 -9
-3 3 -5 -1 -11 -9 -15 -8 -3 -15 -11 -14 -18 0 -10 2 -10 6 0 7 19 23 14 17
-5 -5 -15 -4 -15 4 -3 6 8 8 18 5 23 -3 5 0 7 8 5 8 -3 14 -12 13 -19 -1 -8 7
-15 17 -15 10 0 16 2 14 5 -3 2 1 11 8 20 10 14 10 14 -3 5 -11 -9 -18 -9 -27
1 -14 15 -7 26 12 19 7 -3 15 2 19 11 3 9 0 18 -9 21 -8 4 -12 10 -9 15 3 5 3
9 0 9 -3 0 -7 -3 -7 -7z"/>
<path d="M1030 5714 c6 -6 8 -13 5 -16 -3 -2 2 -5 10 -5 10 0 12 4 4 13 -7 8
-6 14 3 17 7 3 3 4 -9 4 -15 -1 -19 -5 -13 -13z"/>
<path d="M2120 5720 c-8 -5 -12 -12 -9 -15 4 -3 12 1 19 10 14 17 11 19 -10 5z"/>
<path d="M1070 5711 c0 -6 4 -13 10 -16 6 -3 7 1 4 9 -7 18 -14 21 -14 7z"/>
<path d="M1268 5693 c6 -2 9 -10 6 -15 -4 -7 -2 -8 5 -4 13 9 5 26 -12 25 -9
0 -8 -2 1 -6z"/>
<path d="M1113 5675 c0 -8 4 -12 9 -9 4 3 8 9 8 15 0 5 -4 9 -8 9 -5 0 -9 -7
-9 -15z"/>
<path d="M1210 5680 c0 -5 5 -10 11 -10 5 0 7 5 4 10 -3 6 -8 10 -11 10 -2 0
-4 -4 -4 -10z"/>
<path d="M1370 5680 c0 -5 5 -10 11 -10 5 0 7 5 4 10 -3 6 -8 10 -11 10 -2 0
-4 -4 -4 -10z"/>
<path d="M1449 5663 c-13 -16 -12 -17 4 -4 9 7 17 15 17 17 0 8 -8 3 -21 -13z"/>
<path d="M1620 5671 c0 -6 4 -13 10 -16 6 -3 7 1 4 9 -7 18 -14 21 -14 7z"/>
<path d="M1680 5659 c0 -5 5 -7 10 -4 6 3 10 8 10 11 0 2 -4 4 -10 4 -5 0 -10
-5 -10 -11z"/>
<path d="M1530 5646 c0 -2 7 -7 16 -10 8 -3 12 -2 9 4 -6 10 -25 14 -25 6z"/>
<path d="M1735 5640 c3 -5 8 -10 11 -10 2 0 4 5 4 10 0 6 -5 10 -11 10 -5 0
-7 -4 -4 -10z"/>
<path d="M9914 4142 c4 -7 1 -12 -6 -12 -8 0 -6 -5 5 -11 10 -6 21 -8 24 -5 4
3 1 6 -6 6 -7 0 -10 4 -6 9 3 5 0 13 -6 17 -8 4 -9 3 -5 -4z"/>
<path d="M9955 4081 c-6 -10 33 -36 42 -28 2 3 -5 8 -16 12 -12 3 -19 11 -16
16 4 5 4 9 1 9 -3 0 -7 -4 -11 -9z"/>
<path d="M9990 4079 c0 -5 5 -7 10 -4 6 3 10 8 10 11 0 2 -4 4 -10 4 -5 0 -10
-5 -10 -11z"/>
<path d="M10031 4043 c3 -19 -3 -22 -28 -13 -27 10 -27 9 -8 -5 11 -9 19 -18
17 -21 -2 -3 -1 -8 2 -10 3 -2 4 -1 1 2 -2 4 5 14 17 24 15 12 18 19 9 24 -6
4 -11 4 -10 -1z"/>
<path d="M10113 3944 c0 -17 2 -22 7 -13 5 6 6 18 3 26 -8 19 -10 16 -10 -13z"/>
<path d="M10062 3910 c13 -20 28 -27 28 -12 0 4 -9 13 -20 20 -19 12 -20 11
-8 -8z"/>
<path d="M10136 3918 c3 -5 10 -6 15 -3 13 9 11 12 -6 12 -8 0 -12 -4 -9 -9z"/>
<path d="M10176 3887 c3 -10 9 -15 12 -12 3 3 0 11 -7 18 -10 9 -11 8 -5 -6z"/>
<path d="M10180 3846 c0 -2 7 -7 16 -10 8 -3 12 -2 9 4 -6 10 -25 14 -25 6z"/>
<path d="M10129 3835 c-1 -3 -2 -9 -3 -14 0 -5 -4 -13 -8 -17 -13 -13 -9 -20
14 -21 18 -2 20 0 8 7 -12 8 -12 10 -1 10 10 0 11 3 2 13 -6 8 -8 17 -4 20 3
4 3 7 0 7 -4 0 -8 -2 -8 -5z"/>
<path d="M10230 3761 c0 -6 4 -12 8 -15 5 -3 9 1 9 9 0 8 -4 15 -9 15 -4 0 -8
-4 -8 -9z"/>
<path d="M10290 3681 c0 -6 4 -13 10 -16 6 -3 7 1 4 9 -7 18 -14 21 -14 7z"/>
<path d="M10267 3673 c-11 -11 -8 -21 9 -27 13 -5 14 -4 6 7 -7 8 -9 17 -5 20
3 4 4 7 1 7 -2 0 -8 -3 -11 -7z"/>
<path d="M10320 3640 c-9 -6 -10 -10 -3 -10 6 0 15 5 18 10 8 12 4 12 -15 0z"/>
<path d="M10336 3447 c3 -10 9 -15 12 -12 3 3 0 11 -7 18 -10 9 -11 8 -5 -6z"/>
<path d="M10336 3378 c3 -5 10 -6 15 -3 13 9 11 12 -6 12 -8 0 -12 -4 -9 -9z"/>
<path d="M10330 3350 c-9 -6 -10 -10 -3 -10 6 0 15 5 18 10 8 12 4 12 -15 0z"/>
<path d="M10287 3287 c-20 -17 -24 -26 -16 -34 8 -8 8 -13 0 -17 -6 -4 -11
-12 -11 -18 0 -6 6 -6 15 2 9 8 13 22 10 34 -5 19 -4 19 6 -1 7 -13 16 -23 21
-23 5 0 6 5 3 10 -3 6 -1 10 4 10 6 0 11 -5 11 -12 0 -6 2 -9 5 -6 3 3 3 13
-1 22 -5 13 -9 14 -20 5 -9 -8 -14 -8 -14 -1 0 6 5 14 10 17 6 4 8 10 5 15 -3
5 3 11 12 13 13 3 13 5 3 5 -8 1 -27 -9 -43 -21z"/>
<path d="M10355 3290 c-4 -6 -11 -7 -17 -4 -7 4 -8 2 -4 -5 6 -9 11 -9 22 0
14 11 18 19 10 19 -3 0 -8 -5 -11 -10z"/>
<path d="M10230 3226 c0 -8 5 -18 10 -21 6 -3 10 3 10 14 0 12 -4 21 -10 21
-5 0 -10 -6 -10 -14z"/>
<path d="M10330 3150 c-9 -6 -10 -10 -3 -10 6 0 15 5 18 10 8 12 4 12 -15 0z"/>
<path d="M10252 3114 c-27 -18 -25 -37 4 -39 16 -1 20 5 20 27 0 15 0 28 -1
28 0 0 -11 -7 -23 -16z"/>
<path d="M10335 3120 c3 -5 8 -10 11 -10 2 0 4 5 4 10 0 6 -5 10 -11 10 -5 0
-7 -4 -4 -10z"/>
<path d="M10255 3020 c3 -6 -1 -13 -9 -16 -9 -3 -16 -11 -16 -17 0 -5 9 -2 20
8 22 20 26 35 9 35 -5 0 -7 -5 -4 -10z"/>
<path d="M10330 2980 c0 -5 5 -10 11 -10 5 0 7 5 4 10 -3 6 -8 10 -11 10 -2 0
-4 -4 -4 -10z"/>
<path d="M10215 2940 c3 -5 8 -10 11 -10 2 0 4 5 4 10 0 6 -5 10 -11 10 -5 0
-7 -4 -4 -10z"/>
<path d="M10320 2940 c-9 -6 -10 -10 -3 -10 6 0 15 5 18 10 8 12 4 12 -15 0z"/>
<path d="M10315 2891 c-3 -5 -2 -12 3 -15 5 -3 9 1 9 9 0 17 -3 19 -12 6z"/>
<path d="M10222 2870 c13 -20 28 -27 28 -12 0 4 -9 13 -20 20 -19 12 -20 11
-8 -8z"/>
<path d="M10216 2833 c-4 -4 -15 -8 -24 -8 -10 0 -16 -7 -14 -16 1 -9 -5 -22
-13 -29 -17 -14 -20 -30 -4 -30 5 0 8 4 5 9 -3 4 3 16 14 26 11 10 17 22 14
27 -4 6 5 2 20 -7 15 -10 29 -15 33 -11 3 3 1 6 -5 6 -7 0 -12 5 -12 10 0 6 5
9 11 8 6 -2 13 3 15 10 1 7 0 8 -3 2 -3 -8 -9 -8 -17 -1 -7 6 -16 8 -20 4z"/>
<path d="M10230 2759 c0 -5 5 -7 10 -4 6 3 10 8 10 11 0 2 -4 4 -10 4 -5 0
-10 -5 -10 -11z"/>
<path d="M10170 2662 c0 -5 7 -9 15 -9 8 0 12 4 9 9 -3 4 -9 8 -15 8 -5 0 -9
-4 -9 -8z"/>
<path d="M9960 2551 c0 -5 5 -13 10 -16 6 -3 10 -2 10 4 0 5 -4 13 -10 16 -5
3 -10 2 -10 -4z"/>
<path d="M10055 2520 c3 -5 8 -10 11 -10 2 0 4 5 4 10 0 6 -5 10 -11 10 -5 0
-7 -4 -4 -10z"/>
<path d="M10030 2479 c0 -5 5 -7 10 -4 6 3 10 8 10 11 0 2 -4 4 -10 4 -5 0
-10 -5 -10 -11z"/>
<path d="M9865 2460 c-3 -5 -1 -10 4 -10 6 0 11 5 11 10 0 6 -2 10 -4 10 -3 0
-8 -4 -11 -10z"/>
<path d="M9953 2428 c1 -15 6 -23 11 -18 4 4 4 16 -2 26 -9 16 -10 14 -9 -8z"/>
<path d="M8630 2426 c-7 -7 -3 -16 12 -28 13 -10 16 -16 8 -13 -20 6 -52 -40
-55 -79 -3 -25 2 -34 23 -44 16 -7 28 -9 30 -3 2 6 11 7 20 4 10 -4 7 2 -7 14
-17 13 -21 22 -13 27 7 4 12 3 12 -2 0 -6 6 -12 13 -15 7 -3 13 3 13 13 0 13
-7 16 -29 13 -25 -2 -27 -1 -17 11 6 8 19 12 28 9 10 -3 13 -1 7 4 -14 11 -12
46 3 51 8 2 10 -2 5 -15 -7 -17 -6 -17 11 0 19 18 41 24 31 7 -3 -5 -1 -10 4
-10 14 0 13 10 -4 40 -10 19 -22 25 -49 25 -20 1 -41 -4 -46 -9z m34 -8 c9 14
44 11 50 -5 6 -15 -3 -21 -29 -18 -33 4 -55 16 -49 27 4 6 9 6 14 -2 5 -8 10
-9 14 -2z m-22 -81 c-20 -21 -20 -25 -7 -44 8 -12 11 -24 6 -27 -11 -7 -33 18
-24 27 3 4 1 13 -6 20 -15 19 26 74 42 58 8 -8 4 -18 -11 -34z"/>
<path d="M8666 2412 c-2 -4 4 -8 14 -8 10 0 16 4 14 8 -3 4 -9 8 -14 8 -5 0
-11 -4 -14 -8z"/>
<path d="M8633 2358 c-22 -29 -24 -41 -3 -20 12 13 20 25 17 28 -2 2 -9 -1
-14 -8z"/>
<path d="M9793 2405 c0 -8 4 -12 9 -9 5 3 6 10 3 15 -9 13 -12 11 -12 -6z"/>
<path d="M8855 2392 c-3 -9 -3 -13 1 -10 4 4 15 3 25 -3 25 -13 25 3 0 18 -16
10 -20 9 -26 -5z"/>
<path d="M8690 2342 c0 -5 7 -9 15 -9 8 0 12 4 9 9 -3 4 -9 8 -15 8 -5 0 -9
-4 -9 -8z"/>
<path d="M9270 2341 c0 -16 -31 -42 -41 -35 -6 3 -8 13 -4 22 5 13 2 12 -15
-3 -11 -10 -20 -21 -20 -25 0 -8 56 -7 65 2 4 4 13 4 20 2 17 -7 27 10 19 30
-7 17 -24 22 -24 7z"/>
<path d="M9461 2331 c-11 -11 -22 -17 -25 -13 -3 3 -6 -2 -6 -11 0 -23 12 -21
28 3 7 11 19 20 27 20 8 0 15 5 15 10 0 16 -18 12 -39 -9z"/>
<path d="M9836 2333 c-6 -14 -5 -15 5 -6 7 7 10 15 7 18 -3 3 -9 -2 -12 -12z"/>
<path d="M8735 2331 c-3 -5 -2 -12 3 -15 5 -3 9 1 9 9 0 17 -3 19 -12 6z"/>
<path d="M8793 2325 c0 -8 4 -15 9 -15 4 0 8 4 8 9 0 6 -4 12 -8 15 -5 3 -9
-1 -9 -9z"/>
<path d="M9363 2328 c3 -9 1 -20 -4 -25 -6 -6 -5 -10 4 -10 16 0 20 34 5 43
-7 5 -9 2 -5 -8z"/>
<path d="M9736 2293 c-6 -14 -5 -15 5 -6 7 7 10 15 7 18 -3 3 -9 -2 -12 -12z"/>
<path d="M8947 2287 c-3 -7 5 -12 19 -12 29 0 29 1 5 14 -14 8 -20 7 -24 -2z"/>
<path d="M9650 2270 c-6 -11 -8 -20 -6 -20 3 0 10 9 16 20 6 11 8 20 6 20 -3
0 -10 -9 -16 -20z"/>
<path d="M9075 2240 c3 -5 8 -10 11 -10 2 0 4 5 4 10 0 6 -5 10 -11 10 -5 0
-7 -4 -4 -10z"/>
<path d="M9513 2225 c0 -8 4 -12 9 -9 5 3 6 10 3 15 -9 13 -12 11 -12 -6z"/>
<path d="M9550 2219 c0 -5 5 -7 10 -4 6 3 10 8 10 11 0 2 -4 4 -10 4 -5 0 -10
-5 -10 -11z"/>
<path d="M8700 2146 c0 -2 8 -10 18 -17 15 -13 16 -12 3 4 -13 16 -21 21 -21
13z"/>
<path d="M8715 2061 c-3 -5 -2 -12 3 -15 5 -3 9 1 9 9 0 17 -3 19 -12 6z"/>
<path d="M7543 1829 c15 -11 25 -24 22 -28 -2 -4 2 -8 11 -8 9 0 13 7 9 21 -3
12 -2 15 1 9 8 -17 24 -16 24 1 0 8 -8 13 -17 11 -10 -1 -22 0 -28 4 -5 3 -19
7 -30 8 -17 2 -15 -1 8 -18z"/>
<path d="M7469 1823 c-13 -16 -12 -17 4 -4 16 13 21 21 13 21 -2 0 -10 -8 -17
-17z"/>
<path d="M7615 1814 c-16 -25 -16 -25 4 -14 12 6 21 17 21 25 0 21 -5 19 -25
-11z"/>
<path d="M7493 1779 c-2 -23 3 -25 10 -4 4 8 3 16 -1 19 -4 3 -9 -4 -9 -15z"/>
<path d="M7777 1778 c13 -16 13 -48 1 -48 -5 0 -6 -5 -3 -11 4 -6 13 -8 19 -6
7 3 19 1 27 -3 18 -12 39 7 32 27 -5 12 -2 15 10 10 9 -3 19 -2 22 2 7 12 -21
22 -40 15 -8 -4 -12 -11 -8 -18 3 -6 -5 1 -20 17 -26 27 -59 40 -40 15z m66
-61 c-2 -4 -12 -3 -22 3 -10 5 -21 7 -24 4 -4 -5 -3 13 2 34 1 2 12 -5 25 -15
13 -10 22 -21 19 -26z"/>
<path d="M7870 1781 c0 -5 7 -12 16 -15 13 -5 14 -9 4 -21 -7 -8 -16 -12 -21
-9 -5 3 -6 -1 -3 -9 3 -8 1 -18 -5 -22 -6 -3 -11 -11 -11 -18 0 -6 6 -2 14 8
8 11 19 16 30 12 14 -6 15 -3 6 16 -9 17 -5 15 16 -8 15 -16 25 -22 22 -13 -4
10 -1 19 8 22 24 9 27 7 14 -9 -6 -8 -10 -20 -7 -27 3 -8 6 -6 6 5 1 10 5 16
10 13 13 -9 7 19 -8 38 -8 10 -21 14 -32 11 -11 -4 -19 -2 -19 4 0 6 -9 15
-20 21 -11 6 -20 7 -20 1z"/>
<path d="M7514 1761 c4 -6 2 -11 -3 -11 -6 0 -11 -5 -11 -11 0 -8 5 -8 15 1
12 10 18 10 32 -1 11 -9 14 -10 9 -2 -4 7 -16 18 -28 24 -15 8 -19 8 -14 0z"/>
<path d="M9110 1766 c0 -2 7 -7 16 -10 8 -3 12 -2 9 4 -6 10 -25 14 -25 6z"/>
<path d="M7670 1739 c0 -5 5 -7 10 -4 6 3 10 8 10 11 0 2 -4 4 -10 4 -5 0 -10
-5 -10 -11z"/>
<path d="M7526 1722 c-3 -5 1 -9 9 -9 8 0 12 4 9 9 -3 4 -7 8 -9 8 -2 0 -6 -4
-9 -8z"/>
<path d="M8393 1715 c-14 -10 -24 -12 -28 -5 -4 6 -11 8 -16 4 -5 -3 -7 -10
-4 -15 8 -12 -2 -11 -27 2 -12 6 -18 7 -14 1 3 -5 0 -12 -8 -15 -9 -4 -12 0
-9 12 3 11 -1 18 -10 18 -8 0 -14 -7 -13 -15 3 -20 35 -42 52 -35 8 3 21 0 29
-7 11 -9 18 -10 28 -1 8 6 17 8 20 4 4 -3 0 -11 -8 -17 -11 -8 -12 -15 -4 -26
9 -12 10 -12 5 4 -5 15 -2 17 14 13 11 -3 23 0 27 5 3 7 1 8 -5 4 -7 -4 -12
-3 -12 2 0 17 13 22 27 11 11 -10 11 -15 1 -27 -10 -12 -6 -11 15 2 29 20 35
29 14 20 -8 -3 -14 2 -14 11 0 17 6 18 26 6 8 -5 11 -15 8 -23 -3 -9 1 -15 9
-15 7 0 16 9 20 19 4 15 9 16 26 7 16 -9 19 -8 13 2 -6 8 -4 10 6 4 8 -5 11
-4 6 1 -4 4 -25 9 -45 10 -55 2 -58 3 -42 13 8 6 19 7 25 3 21 -13 85 -9 85 6
0 10 -6 12 -17 7 -19 -8 -27 -9 -85 -1 -21 2 -41 0 -44 -6 -4 -6 -11 -2 -18
11 -11 19 -13 20 -33 6z m9 -15 c22 11 22 11 3 -5 -20 -16 -20 -16 5 -13 14 2
32 8 40 13 12 7 13 6 3 -7 -7 -8 -11 -18 -8 -22 3 -3 0 -2 -7 4 -8 6 -16 6
-24 -1 -8 -7 -14 -7 -19 1 -5 8 -11 8 -20 0 -19 -15 -40 -3 -26 14 6 7 7 17 3
22 -4 4 1 3 10 -5 13 -9 22 -10 40 -1z m-72 -14 c0 -2 -7 -7 -16 -10 -8 -3
-12 -2 -9 4 6 10 25 14 25 6z"/>
<path d="M7576 1707 c3 -10 9 -15 12 -12 3 3 0 11 -7 18 -10 9 -11 8 -5 -6z"/>
<path d="M7661 1698 c-13 -20 -12 -22 1 -11 8 7 18 10 22 6 4 -4 4 0 0 10 -8
21 -6 21 -23 -5z"/>
<path d="M8603 1697 c6 -15 -3 -22 -25 -18 -4 0 -5 -6 -2 -14 6 -14 -5 -20
-35 -16 -7 2 -10 -3 -6 -9 4 -6 12 -9 18 -7 7 2 20 -2 29 -10 25 -22 44 -6 22
18 -9 11 -14 22 -11 26 4 4 14 -2 22 -13 14 -18 14 -18 10 4 -2 13 0 20 6 17
5 -4 7 -11 4 -16 -4 -5 -2 -9 4 -9 5 0 12 6 15 13 3 6 4 5 3 -5 -1 -9 2 -17 7
-16 5 0 13 -6 17 -14 6 -8 9 -9 9 -1 0 6 8 10 18 8 9 -2 21 -4 25 -4 5 -1 5
-5 2 -11 -3 -5 -1 -10 4 -10 15 0 14 12 -3 35 -8 11 -12 25 -9 31 9 24 -16 23
-35 -1 -16 -21 -21 -22 -26 -9 -3 8 -10 13 -14 10 -5 -3 -20 5 -32 17 -19 16
-22 18 -17 4z m114 -24 c-4 -3 -3 -11 3 -18 6 -8 2 -11 -15 -11 -14 0 -25 1
-25 2 0 5 32 34 37 34 4 0 3 -3 0 -7z m-111 -50 c-7 -7 -26 7 -26 19 0 6 6 6
15 -2 9 -7 13 -15 11 -17z"/>
<path d="M9083 1696 c5 -15 24 -18 24 -3 0 8 -6 14 -14 14 -7 0 -12 -5 -10
-11z"/>
<path d="M7790 1696 c0 -2 9 -6 20 -9 11 -3 18 -1 14 4 -5 9 -34 13 -34 5z"/>
<path d="M8765 1671 c-2 -5 4 -16 14 -25 15 -14 24 -15 39 -7 11 6 23 7 28 3
5 -4 2 1 -5 10 -7 10 -17 15 -22 12 -5 -3 -9 -1 -9 3 0 11 -38 14 -45 4z m39
-30 c-2 -3 -12 3 -22 13 -16 17 -16 18 5 5 12 -7 20 -15 17 -18z"/>
<path d="M7970 1659 c0 -5 5 -7 10 -4 6 3 10 8 10 11 0 2 -4 4 -10 4 -5 0 -10
-5 -10 -11z"/>
<path d="M8205 1659 c-4 -6 -5 -12 -2 -15 2 -3 7 2 10 11 7 17 1 20 -8 4z"/>
<path d="M9010 1660 c0 -5 5 -10 10 -10 6 0 10 5 10 10 0 6 -4 10 -10 10 -5 0
-10 -4 -10 -10z"/>
<path d="M9140 1660 c0 -5 5 -10 11 -10 5 0 7 5 4 10 -3 6 -8 10 -11 10 -2 0
-4 -4 -4 -10z"/>
<path d="M8270 1650 c-9 -6 -10 -10 -3 -10 6 0 15 5 18 10 8 12 4 12 -15 0z"/>
<path d="M8015 1640 c-3 -5 -1 -10 4 -10 6 0 11 5 11 10 0 6 -2 10 -4 10 -3 0
-8 -4 -11 -10z"/>
<path d="M8300 1646 c0 -2 11 -6 25 -8 13 -3 22 -1 19 3 -5 9 -44 13 -44 5z"/>
<path d="M8630 1631 c0 -5 7 -11 14 -14 10 -4 13 -1 9 9 -6 15 -23 19 -23 5z"/>
<path d="M9251 1627 c-8 -10 -7 -14 2 -14 8 0 14 6 14 14 0 7 -1 13 -2 13 -2
0 -8 -6 -14 -13z"/>
<path d="M8226 1618 c3 -5 10 -6 15 -3 13 9 11 12 -6 12 -8 0 -12 -4 -9 -9z"/>
<path d="M8286 1618 c3 -5 10 -6 15 -3 13 9 11 12 -6 12 -8 0 -12 -4 -9 -9z"/>
<path d="M8516 1622 c-3 -5 1 -9 9 -9 8 0 12 4 9 9 -3 4 -7 8 -9 8 -2 0 -6 -4
-9 -8z"/>
<path d="M8416 1601 c-3 -5 2 -15 12 -22 15 -12 16 -12 5 2 -7 9 -10 19 -6 22
3 4 4 7 0 7 -3 0 -8 -4 -11 -9z"/>
<path d="M8675 1600 c3 -5 8 -10 11 -10 2 0 4 5 4 10 0 6 -5 10 -11 10 -5 0
-7 -4 -4 -10z"/>
<path d="M8755 1600 c-3 -5 -1 -10 4 -10 6 0 11 5 11 10 0 6 -2 10 -4 10 -3 0
-8 -4 -11 -10z"/>
<path d="M8910 1579 c0 -5 5 -7 10 -4 6 3 10 8 10 11 0 2 -4 4 -10 4 -5 0 -10
-5 -10 -11z"/>
<path d="M9000 1586 c0 -2 7 -7 16 -10 8 -3 12 -2 9 4 -6 10 -25 14 -25 6z"/>
</g>
</svg>
